<svg viewBox="0 0 1404 1872" xmlns="http://www.w3.org/2000/svg">
<rect fill="#000000" height="117" width="88" x="0" y="0"/>
<rect fill="#010101" height="117" width="88" x="88" y="0"/>
<rect fill="#020202" height="117" width="88" x="176" y="0"/>
<rect fill="#030303" height="117" width="88" x="264" y="0"/>
<rect fill="#040404" height="117" width="88" x="352" y="0"/>
<rect fill="#050505" height="117" width="88" x="440" y="0"/>
<rect fill="#060606" height="117" width="88" x="528" y="0"/>
<rect fill="#070707" height="117" width="88" x="616" y="0"/>
<rect fill="#080808" height="117" width="88" x="704" y="0"/>
<rect fill="#090909" height="117" width="88" x="792" y="0"/>
<rect fill="#0A0A0A" height="117" width="88" x="880" y="0"/>
<rect fill="#0B0B0B" height="117" width="88" x="968" y="0"/>
<rect fill="#0C0C0C" height="117" width="87" x="1056" y="0"/>
<rect fill="#0D0D0D" height="117" width="87" x="1143" y="0"/>
<rect fill="#0E0E0E" height="117" width="87" x="1230" y="0"/>
<rect fill="#0F0F0F" height="117" width="87" x="1317" y="0"/>
<rect fill="#101010" height="117" width="88" x="0" y="117"/>
<rect fill="#111111" height="117" width="88" x="88" y="117"/>
<rect fill="#121212" height="117" width="88" x="176" y="117"/>
<rect fill="#131313" height="117" width="88" x="264" y="117"/>
<rect fill="#141414" height="117" width="88" x="352" y="117"/>
<rect fill="#151515" height="117" width="88" x="440" y="117"/>
<rect fill="#161616" height="117" width="88" x="528" y="117"/>
<rect fill="#171717" height="117" width="88" x="616" y="117"/>
<rect fill="#181818" height="117" width="88" x="704" y="117"/>
<rect fill="#191919" height="117" width="88" x="792" y="117"/>
<rect fill="#1A1A1A" height="117" width="88" x="880" y="117"/>
<rect fill="#1B1B1B" height="117" width="88" x="968" y="117"/>
<rect fill="#1C1C1C" height="117" width="87" x="1056" y="117"/>
<rect fill="#1D1D1D" height="117" width="87" x="1143" y="117"/>
<rect fill="#1E1E1E" height="117" width="87" x="1230" y="117"/>
<rect fill="#1F1F1F" height="117" width="87" x="1317" y="117"/>
<rect fill="#202020" height="117" width="88" x="0" y="234"/>
<rect fill="#212121" height="117" width="88" x="88" y="234"/>
<rect fill="#222222" height="117" width="88" x="176" y="234"/>
<rect fill="#232323" height="117" width="88" x="264" y="234"/>
<rect fill="#242424" height="117" width="88" x="352" y="234"/>
<rect fill="#252525" height="117" width="88" x="440" y="234"/>
<rect fill="#262626" height="117" width="88" x="528" y="234"/>
<rect fill="#272727" height="117" width="88" x="616" y="234"/>
<rect fill="#282828" height="117" width="88" x="704" y="234"/>
<rect fill="#292929" height="117" width="88" x="792" y="234"/>
<rect fill="#2A2A2A" height="117" width="88" x="880" y="234"/>
<rect fill="#2B2B2B" height="117" width="88" x="968" y="234"/>
<rect fill="#2C2C2C" height="117" width="87" x="1056" y="234"/>
<rect fill="#2D2D2D" height="117" width="87" x="1143" y="234"/>
<rect fill="#2E2E2E" height="117" width="87" x="1230" y="234"/>
<rect fill="#2F2F2F" height="117" width="87" x="1317" y="234"/>
<rect fill="#303030" height="117" width="88" x="0" y="351"/>
<rect fill="#313131" height="117" width="88" x="88" y="351"/>
<rect fill="#323232" height="117" width="88" x="176" y="351"/>
<rect fill="#333333" height="117" width="88" x="264" y="351"/>
<rect fill="#343434" height="117" width="88" x="352" y="351"/>
<rect fill="#353535" height="117" width="88" x="440" y="351"/>
<rect fill="#363636" height="117" width="88" x="528" y="351"/>
<rect fill="#373737" height="117" width="88" x="616" y="351"/>
<rect fill="#383838" height="117" width="88" x="704" y="351"/>
<rect fill="#393939" height="117" width="88" x="792" y="351"/>
<rect fill="#3A3A3A" height="117" width="88" x="880" y="351"/>
<rect fill="#3B3B3B" height="117" width="88" x="968" y="351"/>
<rect fill="#3C3C3C" height="117" width="87" x="1056" y="351"/>
<rect fill="#3D3D3D" height="117" width="87" x="1143" y="351"/>
<rect fill="#3E3E3E" height="117" width="87" x="1230" y="351"/>
<rect fill="#3F3F3F" height="117" width="87" x="1317" y="351"/>
<rect fill="#404040" height="117" width="88" x="0" y="468"/>
<rect fill="#414141" height="117" width="88" x="88" y="468"/>
<rect fill="#424242" height="117" width="88" x="176" y="468"/>
<rect fill="#434343" height="117" width="88" x="264" y="468"/>
<rect fill="#444444" height="117" width="88" x="352" y="468"/>
<rect fill="#454545" height="117" width="88" x="440" y="468"/>
<rect fill="#464646" height="117" width="88" x="528" y="468"/>
<rect fill="#474747" height="117" width="88" x="616" y="468"/>
<rect fill="#484848" height="117" width="88" x="704" y="468"/>
<rect fill="#494949" height="117" width="88" x="792" y="468"/>
<rect fill="#4A4A4A" height="117" width="88" x="880" y="468"/>
<rect fill="#4B4B4B" height="117" width="88" x="968" y="468"/>
<rect fill="#4C4C4C" height="117" width="87" x="1056" y="468"/>
<rect fill="#4D4D4D" height="117" width="87" x="1143" y="468"/>
<rect fill="#4E4E4E" height="117" width="87" x="1230" y="468"/>
<rect fill="#4F4F4F" height="117" width="87" x="1317" y="468"/>
<rect fill="#505050" height="117" width="88" x="0" y="585"/>
<rect fill="#515151" height="117" width="88" x="88" y="585"/>
<rect fill="#525252" height="117" width="88" x="176" y="585"/>
<rect fill="#535353" height="117" width="88" x="264" y="585"/>
<rect fill="#545454" height="117" width="88" x="352" y="585"/>
<rect fill="#555555" height="117" width="88" x="440" y="585"/>
<rect fill="#565656" height="117" width="88" x="528" y="585"/>
<rect fill="#575757" height="117" width="88" x="616" y="585"/>
<rect fill="#585858" height="117" width="88" x="704" y="585"/>
<rect fill="#595959" height="117" width="88" x="792" y="585"/>
<rect fill="#5A5A5A" height="117" width="88" x="880" y="585"/>
<rect fill="#5B5B5B" height="117" width="88" x="968" y="585"/>
<rect fill="#5C5C5C" height="117" width="87" x="1056" y="585"/>
<rect fill="#5D5D5D" height="117" width="87" x="1143" y="585"/>
<rect fill="#5E5E5E" height="117" width="87" x="1230" y="585"/>
<rect fill="#5F5F5F" height="117" width="87" x="1317" y="585"/>
<rect fill="#606060" height="117" width="88" x="0" y="702"/>
<rect fill="#616161" height="117" width="88" x="88" y="702"/>
<rect fill="#626262" height="117" width="88" x="176" y="702"/>
<rect fill="#636363" height="117" width="88" x="264" y="702"/>
<rect fill="#646464" height="117" width="88" x="352" y="702"/>
<rect fill="#656565" height="117" width="88" x="440" y="702"/>
<rect fill="#666666" height="117" width="88" x="528" y="702"/>
<rect fill="#676767" height="117" width="88" x="616" y="702"/>
<rect fill="#686868" height="117" width="88" x="704" y="702"/>
<rect fill="#696969" height="117" width="88" x="792" y="702"/>
<rect fill="#6A6A6A" height="117" width="88" x="880" y="702"/>
<rect fill="#6B6B6B" height="117" width="88" x="968" y="702"/>
<rect fill="#6C6C6C" height="117" width="87" x="1056" y="702"/>
<rect fill="#6D6D6D" height="117" width="87" x="1143" y="702"/>
<rect fill="#6E6E6E" height="117" width="87" x="1230" y="702"/>
<rect fill="#6F6F6F" height="117" width="87" x="1317" y="702"/>
<rect fill="#707070" height="117" width="88" x="0" y="819"/>
<rect fill="#717171" height="117" width="88" x="88" y="819"/>
<rect fill="#727272" height="117" width="88" x="176" y="819"/>
<rect fill="#737373" height="117" width="88" x="264" y="819"/>
<rect fill="#747474" height="117" width="88" x="352" y="819"/>
<rect fill="#757575" height="117" width="88" x="440" y="819"/>
<rect fill="#767676" height="117" width="88" x="528" y="819"/>
<rect fill="#777777" height="117" width="88" x="616" y="819"/>
<rect fill="#787878" height="117" width="88" x="704" y="819"/>
<rect fill="#797979" height="117" width="88" x="792" y="819"/>
<rect fill="#7A7A7A" height="117" width="88" x="880" y="819"/>
<rect fill="#7B7B7B" height="117" width="88" x="968" y="819"/>
<rect fill="#7C7C7C" height="117" width="87" x="1056" y="819"/>
<rect fill="#7D7D7D" height="117" width="87" x="1143" y="819"/>
<rect fill="#7E7E7E" height="117" width="87" x="1230" y="819"/>
<rect fill="#7F7F7F" height="117" width="87" x="1317" y="819"/>
<rect fill="#808080" height="117" width="88" x="0" y="936"/>
<rect fill="#818181" height="117" width="88" x="88" y="936"/>
<rect fill="#828282" height="117" width="88" x="176" y="936"/>
<rect fill="#838383" height="117" width="88" x="264" y="936"/>
<rect fill="#848484" height="117" width="88" x="352" y="936"/>
<rect fill="#858585" height="117" width="88" x="440" y="936"/>
<rect fill="#868686" height="117" width="88" x="528" y="936"/>
<rect fill="#878787" height="117" width="88" x="616" y="936"/>
<rect fill="#888888" height="117" width="88" x="704" y="936"/>
<rect fill="#898989" height="117" width="88" x="792" y="936"/>
<rect fill="#8A8A8A" height="117" width="88" x="880" y="936"/>
<rect fill="#8B8B8B" height="117" width="88" x="968" y="936"/>
<rect fill="#8C8C8C" height="117" width="87" x="1056" y="936"/>
<rect fill="#8D8D8D" height="117" width="87" x="1143" y="936"/>
<rect fill="#8E8E8E" height="117" width="87" x="1230" y="936"/>
<rect fill="#8F8F8F" height="117" width="87" x="1317" y="936"/>
<rect fill="#909090" height="117" width="88" x="0" y="1053"/>
<rect fill="#919191" height="117" width="88" x="88" y="1053"/>
<rect fill="#929292" height="117" width="88" x="176" y="1053"/>
<rect fill="#939393" height="117" width="88" x="264" y="1053"/>
<rect fill="#949494" height="117" width="88" x="352" y="1053"/>
<rect fill="#959595" height="117" width="88" x="440" y="1053"/>
<rect fill="#969696" height="117" width="88" x="528" y="1053"/>
<rect fill="#979797" height="117" width="88" x="616" y="1053"/>
<rect fill="#989898" height="117" width="88" x="704" y="1053"/>
<rect fill="#999999" height="117" width="88" x="792" y="1053"/>
<rect fill="#9A9A9A" height="117" width="88" x="880" y="1053"/>
<rect fill="#9B9B9B" height="117" width="88" x="968" y="1053"/>
<rect fill="#9C9C9C" height="117" width="87" x="1056" y="1053"/>
<rect fill="#9D9D9D" height="117" width="87" x="1143" y="1053"/>
<rect fill="#9E9E9E" height="117" width="87" x="1230" y="1053"/>
<rect fill="#9F9F9F" height="117" width="87" x="1317" y="1053"/>
<rect fill="#A0A0A0" height="117" width="88" x="0" y="1170"/>
<rect fill="#A1A1A1" height="117" width="88" x="88" y="1170"/>
<rect fill="#A2A2A2" height="117" width="88" x="176" y="1170"/>
<rect fill="#A3A3A3" height="117" width="88" x="264" y="1170"/>
<rect fill="#A4A4A4" height="117" width="88" x="352" y="1170"/>
<rect fill="#A5A5A5" height="117" width="88" x="440" y="1170"/>
<rect fill="#A6A6A6" height="117" width="88" x="528" y="1170"/>
<rect fill="#A7A7A7" height="117" width="88" x="616" y="1170"/>
<rect fill="#A8A8A8" height="117" width="88" x="704" y="1170"/>
<rect fill="#A9A9A9" height="117" width="88" x="792" y="1170"/>
<rect fill="#AAAAAA" height="117" width="88" x="880" y="1170"/>
<rect fill="#ABABAB" height="117" width="88" x="968" y="1170"/>
<rect fill="#ACACAC" height="117" width="87" x="1056" y="1170"/>
<rect fill="#ADADAD" height="117" width="87" x="1143" y="1170"/>
<rect fill="#AEAEAE" height="117" width="87" x="1230" y="1170"/>
<rect fill="#AFAFAF" height="117" width="87" x="1317" y="1170"/>
<rect fill="#B0B0B0" height="117" width="88" x="0" y="1287"/>
<rect fill="#B1B1B1" height="117" width="88" x="88" y="1287"/>
<rect fill="#B2B2B2" height="117" width="88" x="176" y="1287"/>
<rect fill="#B3B3B3" height="117" width="88" x="264" y="1287"/>
<rect fill="#B4B4B4" height="117" width="88" x="352" y="1287"/>
<rect fill="#B5B5B5" height="117" width="88" x="440" y="1287"/>
<rect fill="#B6B6B6" height="117" width="88" x="528" y="1287"/>
<rect fill="#B7B7B7" height="117" width="88" x="616" y="1287"/>
<rect fill="#B8B8B8" height="117" width="88" x="704" y="1287"/>
<rect fill="#B9B9B9" height="117" width="88" x="792" y="1287"/>
<rect fill="#BABABA" height="117" width="88" x="880" y="1287"/>
<rect fill="#BBBBBB" height="117" width="88" x="968" y="1287"/>
<rect fill="#BCBCBC" height="117" width="87" x="1056" y="1287"/>
<rect fill="#BDBDBD" height="117" width="87" x="1143" y="1287"/>
<rect fill="#BEBEBE" height="117" width="87" x="1230" y="1287"/>
<rect fill="#BFBFBF" height="117" width="87" x="1317" y="1287"/>
<rect fill="#C0C0C0" height="117" width="88" x="0" y="1404"/>
<rect fill="#C1C1C1" height="117" width="88" x="88" y="1404"/>
<rect fill="#C2C2C2" height="117" width="88" x="176" y="1404"/>
<rect fill="#C3C3C3" height="117" width="88" x="264" y="1404"/>
<rect fill="#C4C4C4" height="117" width="88" x="352" y="1404"/>
<rect fill="#C5C5C5" height="117" width="88" x="440" y="1404"/>
<rect fill="#C6C6C6" height="117" width="88" x="528" y="1404"/>
<rect fill="#C7C7C7" height="117" width="88" x="616" y="1404"/>
<rect fill="#C8C8C8" height="117" width="88" x="704" y="1404"/>
<rect fill="#C9C9C9" height="117" width="88" x="792" y="1404"/>
<rect fill="#CACACA" height="117" width="88" x="880" y="1404"/>
<rect fill="#CBCBCB" height="117" width="88" x="968" y="1404"/>
<rect fill="#CCCCCC" height="117" width="87" x="1056" y="1404"/>
<rect fill="#CDCDCD" height="117" width="87" x="1143" y="1404"/>
<rect fill="#CECECE" height="117" width="87" x="1230" y="1404"/>
<rect fill="#CFCFCF" height="117" width="87" x="1317" y="1404"/>
<rect fill="#D0D0D0" height="117" width="88" x="0" y="1521"/>
<rect fill="#D1D1D1" height="117" width="88" x="88" y="1521"/>
<rect fill="#D2D2D2" height="117" width="88" x="176" y="1521"/>
<rect fill="#D3D3D3" height="117" width="88" x="264" y="1521"/>
<rect fill="#D4D4D4" height="117" width="88" x="352" y="1521"/>
<rect fill="#D5D5D5" height="117" width="88" x="440" y="1521"/>
<rect fill="#D6D6D6" height="117" width="88" x="528" y="1521"/>
<rect fill="#D7D7D7" height="117" width="88" x="616" y="1521"/>
<rect fill="#D8D8D8" height="117" width="88" x="704" y="1521"/>
<rect fill="#D9D9D9" height="117" width="88" x="792" y="1521"/>
<rect fill="#DADADA" height="117" width="88" x="880" y="1521"/>
<rect fill="#DBDBDB" height="117" width="88" x="968" y="1521"/>
<rect fill="#DCDCDC" height="117" width="87" x="1056" y="1521"/>
<rect fill="#DDDDDD" height="117" width="87" x="1143" y="1521"/>
<rect fill="#DEDEDE" height="117" width="87" x="1230" y="1521"/>
<rect fill="#DFDFDF" height="117" width="87" x="1317" y="1521"/>
<rect fill="#E0E0E0" height="117" width="88" x="0" y="1638"/>
<rect fill="#E1E1E1" height="117" width="88" x="88" y="1638"/>
<rect fill="#E2E2E2" height="117" width="88" x="176" y="1638"/>
<rect fill="#E3E3E3" height="117" width="88" x="264" y="1638"/>
<rect fill="#E4E4E4" height="117" width="88" x="352" y="1638"/>
<rect fill="#E5E5E5" height="117" width="88" x="440" y="1638"/>
<rect fill="#E6E6E6" height="117" width="88" x="528" y="1638"/>
<rect fill="#E7E7E7" height="117" width="88" x="616" y="1638"/>
<rect fill="#E8E8E8" height="117" width="88" x="704" y="1638"/>
<rect fill="#E9E9E9" height="117" width="88" x="792" y="1638"/>
<rect fill="#EAEAEA" height="117" width="88" x="880" y="1638"/>
<rect fill="#EBEBEB" height="117" width="88" x="968" y="1638"/>
<rect fill="#ECECEC" height="117" width="87" x="1056" y="1638"/>
<rect fill="#EDEDED" height="117" width="87" x="1143" y="1638"/>
<rect fill="#EEEEEE" height="117" width="87" x="1230" y="1638"/>
<rect fill="#EFEFEF" height="117" width="87" x="1317" y="1638"/>
<rect fill="#F0F0F0" height="117" width="88" x="0" y="1755"/>
<rect fill="#F1F1F1" height="117" width="88" x="88" y="1755"/>
<rect fill="#F2F2F2" height="117" width="88" x="176" y="1755"/>
<rect fill="#F3F3F3" height="117" width="88" x="264" y="1755"/>
<rect fill="#F4F4F4" height="117" width="88" x="352" y="1755"/>
<rect fill="#F5F5F5" height="117" width="88" x="440" y="1755"/>
<rect fill="#F6F6F6" height="117" width="88" x="528" y="1755"/>
<rect fill="#F7F7F7" height="117" width="88" x="616" y="1755"/>
<rect fill="#F8F8F8" height="117" width="88" x="704" y="1755"/>
<rect fill="#F9F9F9" height="117" width="88" x="792" y="1755"/>
<rect fill="#FAFAFA" height="117" width="88" x="880" y="1755"/>
<rect fill="#FBFBFB" height="117" width="88" x="968" y="1755"/>
<rect fill="#FCFCFC" height="117" width="87" x="1056" y="1755"/>
<rect fill="#FDFDFD" height="117" width="87" x="1143" y="1755"/>
<rect fill="#FEFEFE" height="117" width="87" x="1230" y="1755"/>
<rect fill="#FFFFFF" height="117" width="87" x="1317" y="1755"/>
</svg>