<svg height="1431.0194" viewBox="0 0 1599.998 1431.0194" width="1599.998" xmlns="http://www.w3.org/2000/svg"><path d="m863.9062.00502934a47.999998 47.999998 0 0 1 34.6426 14.05468966v.002l633.5644 633.568361 67.8848 67.88288-67.8848 67.8789-633.5644 633.56844a47.999998 47.999998 0 0 1 -67.8828 0 47.999998 47.999998 0 0 1 0-67.8828l585.5723-585.56844h-1368.2383c-26.5096-.0003-48-21.4904-48-48 0-26.5095 21.4904-48 48-48h1368.2344l-585.5664-585.564521a47.999998 47.999998 0 0 1 0-67.88477 47.999998 47.999998 0 0 1 33.2422-14.05468966z"/></svg>