<svg height="1431.0194" viewBox="0 0 1600 1431.0194" width="1600" xmlns="http://www.w3.org/2000/svg"><path d="m736.0918.00514434a47.999998 47.999998 0 0 0 -34.64258 14.05468966v.002l-633.56445 633.568306-67.88477 67.88281 67.88477 67.8789 633.56445 633.56845a47.999998 47.999998 0 0 0 67.88281 0 47.999998 47.999998 0 0 0  .002-67.8828l-585.57231-585.56845h1368.23828c26.5096-.0003 48-21.4904 48-48 0-26.5095-21.4904-48-48-48h-1368.23438l585.56641-585.564446a47.999998 47.999998 0 0 0  .002-67.88477 47.999998 47.999998 0 0 0 -33.24218-14.05468966z"/></svg>