<svg height="650.32953" viewBox="0 0 592.16663 650.32953" width="592.16663" xmlns="http://www.w3.org/2000/svg"><path d="m543.07445.0109926c-16.19824.34811-31.79208 8.91824-40.51758 24.0312504l-278.47266 482.328117-134.472654-232.91211c-13.296-23.02934-42.54097-30.86631-65.57031-17.57031-23.0293502 13.296-30.8643602 42.54097-17.5683602 65.57031l176.0000042 304.83985c8.69845 15.06615 24.22296 23.6256 40.36718 24.02344.007.00017.0143.002.0215.002.40716.01.81481.004 1.22265.004.40758.00055.81577.006 1.22266-.004.002-.00005.004.00005.006 0 16.14982-.39271 31.67961-8.95439 40.38086-24.02539l320-554.255857c13.296-23.02935 5.46099-52.27431-17.56836-65.5703104-7.91634-4.5705-16.56599-6.64329-25.05078-6.46094z"/></svg>