<svg height="458.51437" width="528.78247" xmlns="http://www.w3.org/2000/svg"><path d="m480.09923.00364765c-14.60012.19299-28.91086 7.05260005-38.19141 19.82617035l-224.53906 309.048822-130.492194-179.60937c-15.63038-21.51339-45.53349-26.24953-67.046872-10.61914-21.51338 15.63038-26.249527 45.53349-10.61914 67.04687l169.283206 232.99804c8.08978 11.13463 20.00334 17.76161 32.59766 19.41016.0267.004.0534.006.0801.01.63453.082 1.27066.15045 1.90821.20703.22652.0206.45306.0412.67969.0586.45396.0338.90828.0592 1.36328.0801.3744.018.74868.0338 1.12304.043.33466.007.66896.009 1.00391.01.48344.002.96639-.003 1.44922-.0156.22007-.006.44007-.016.66015-.0254.59399-.0241 1.18706-.0575 1.7793-.10352.11653-.009.23311-.0191.34961-.0293 13.38333-1.13941 26.20702-7.87342 34.75781-19.64257l263.32618-362.439457c15.63038-21.51338 10.89423-51.416485-10.61914-67.0468653-8.73982-6.34985-18.86397-9.33908005-28.85352-9.20703005z"/></svg>