<svg height="1287.7207" viewBox="0 0 1184.166 1287.7207" width="1184.166" xmlns="http://www.w3.org/2000/svg"><path d="m1135.0725.01103277c-16.1983.3481129-31.7921 8.91823943-40.5176 24.03125023l-646.47069 1119.722717-358.472652-620.89265c-13.296001-23.02935-42.540965-30.86436-65.570312-17.56836-23.0293483 13.296-30.8643612 42.53901-17.5683602 65.56836l400.0000042 692.82035c8.69491 15.06 24.21049 23.6191 40.34765 24.0234.0124.0004.0247 0 .0371 0h .004c.40654.01.81347 0 1.2207 0 .40758.0006.81577.01 1.22266 0h .002c.007-.0002.0143 0 .0215 0 16.14348-.3985 31.66716-8.9559 40.36524-24.0214l687.99986-1191.652417c13.296-23.02935 5.459-52.27236-17.5704-65.5683597-7.9163-4.5704999-16.5659-6.64523539-25.0507-6.46289053z"/></svg>