<svg height="1295.3518" viewBox="0 0 1295.3302 1295.3518" width="1295.3302" xmlns="http://www.w3.org/2000/svg"><path d="m48.04072 0c-12.27072 0-24.53664 4.72832-33.93856 14.12448-18.80288 18.80384-18.80288 49.07232 0 67.8752l565.68864 565.68736-565.68864 565.68766c-18.80288 18.8039-18.80288 49.0711 0 67.8749 18.80384 18.8029 49.07232 18.8029 67.87616 0l565.6864-565.68736 565.68738 565.68736c18.8042 18.8029 49.0723 18.8029 67.8752 0 18.8038-18.8038 18.8038-49.071 0-67.8749l-565.68772-565.68766 565.68772-565.68736c18.8038-18.80288 18.8038-49.07136 0-67.8752-18.8029-18.80256-49.071-18.80256-67.8752 0l-565.68738 565.68769-565.6864-565.68769c-9.39968-9.39968-21.66816-14.12448-33.9376-14.12448z"/></svg>