<svg height="1139.6846" viewBox="0 0 1167.9346 1139.6846" width="1167.9346" xmlns="http://www.w3.org/2000/svg"><path d="m192 0c-105.659644 0-192 86.340356-192 192 0 105.65964 86.340356 192 192 192 65.85053 0 124.19211-33.54038 158.81055-84.38867l445.24609 203.0957a192 192 0 0 0 -12.12305 67.13477 192 192 0 0 0 12.1211 67.13867l-445.24219 203.09375c-34.61825-50.84956-92.961-84.39063-158.8125-84.39063-105.659644 0-192 86.34036-192 192-.00001981 105.65971 86.340343 192.00191 192 192.00191 105.65966 0 192.00002-86.3422 192-192.00191l-64 .00196c.00001 71.07145-56.92851 127.99995-128 127.99995s-128.000013-56.9285-128-127.99995c0-71.07148 56.92852-128.00196 128-128.00196s128 56.92853 128 128h64c0-17.08226-2.26969-33.65425-6.5-49.44336l450.8125-205.63281a192 192 0 0 0 147.62109 69.23438 192 192 0 0 0 192.00001-192 192 192 0 0 0 -192.00001-192 192 192 0 0 0 -147.62109 69.23437l-450.8125-205.63281c4.23031-15.78911 6.5-32.3611 6.5-49.44336 0-105.659644-86.34036-192-192-192zm0 64c71.07148 0 128 56.92852 128 128s-56.92852 128-128 128-128-56.92852-128-128 56.92852-128 128-128zm783.93359 377.8418a128 128 0 0 1 128.00001 128 128 128 0 0 1 -128.00001 128 128 128 0 0 1 -128-128 128 128 0 0 1 128-128z"/></svg>