<svg height="1536" viewBox="0 0 1536 1536" width="1536" xmlns="http://www.w3.org/2000/svg"><path d="m768 0c-203.6862642 0-399.0300693 80.9140534-543.05800795 224.94199205s-224.94199205 339.37174375-224.94199205 543.05800795 80.9140534 399.0300693 224.94199205 543.05800795 339.37174375 224.94199205 543.05800795 224.94199205 399.0300693-80.9140534 543.05800795-224.94199205 224.94199205-339.37174375 224.94199205-543.05800795-80.9140534-399.0300693-224.94199205-543.05800795-339.37174375-224.94199205-543.05800795-224.94199205l0 0m0 96c175.92918 0 350.7751 72.4235 475.1758 196.82422s196.8242 299.24659 196.8242 475.17578c0 175.9292-72.4235 350.7751-196.8242 475.1758s-299.24662 196.8242-475.1758 196.8242c-175.92919 0-350.77506-72.4235-475.17578-196.8242s-196.82422-299.2466-196.82422-475.1758c0-175.92919 72.4235-350.77506 196.82422-475.17578s299.24659-196.82422 475.17578-196.82422l0 0"/><path d="m767.99999 95.99957v1344.00003c175.92918 0 350.77511-72.4235 475.17581-196.8242s196.8242-299.2466 196.8242-475.1758c0-175.92922-72.4235-350.77509-196.8242-475.17581s-299.24663-196.82422-475.17581-196.82422l0 0"/></svg>