<svg viewBox="0 0 832 832" xmlns="http://www.w3.org/2000/svg"><path d="m271.917 0h512c26.463 0 47.916 21.453 47.916 47.917v512c0 26.463-21.453 47.916-47.916 47.916h-176.084v176.084c0 26.463-21.453 47.916-47.916 47.916h-512c-26.464 0-47.917-21.453-47.917-47.916v-512c0-150.075 121.842-271.917 271.917-271.917zm-176.084 319.833v416.167h416.167v-416.167zm224-224v128.167h240.084c26.463 0 47.916 21.453 47.916 47.917v240.083h128.167c0-118.572 0-416.167 0-416.167zm-95.833 128.167v-121.557c-58.691 16.584-104.973 62.866-121.557 121.557z"/></svg>
