<svg height="1280" viewBox="0 0 1280.0004 1280" width="1280.0004" xmlns="http://www.w3.org/2000/svg"><path d="m368 0c-26.592 0-48 21.408-48 48v272h-272.000001c-26.592 0-47.999999 21.408-47.999999 48s21.407999 48 47.999999 48h272.000001v495.95703.0215.0215c0 .59442.0237 1.18243.0449 1.77148.002.0688.003.13826.006.20704.004.0944.001.18883.006.2832.11659 2.53528.42421 5.01992.91602 7.43555.31865 1.56515.71358 3.10257 1.17968 4.60742 5.84263 18.86345 22.95835 32.67277 43.54492 33.63672.003.00012.005-.00012.008 0 .52166.0254 1.0443.0326 1.5664.041.24356.004.48408.0176.72852.0176h496v271.99996c0 26.592 21.408 48 48 48s48-21.408 48-48v-272h271.99996c26.592 0 48-21.408 48-48s-21.408-48-48-48h-272.0004v-476.11719l212.2598-212.25976c18.8034-18.80339 18.8034-49.07943 0-67.88282-18.8034-18.80338-49.0794-18.80338-67.8828 0l-212.25981 212.25977h-476.11719v-272c0-26.592-21.408-48-48-48zm48 416h380.11719l-380.11719 380.11914zm448 67.88477v380.11523h-380.11524z"/></svg>