<svg height="1616" viewBox="0 0 1616.0009 1616" width="1616.0009" xmlns="http://www.w3.org/2000/svg"><path d="m368 0c-26.592 0-48 21.408-48 48v272h-272c-26.592 0-48 21.408-48 48s21.40835 48.13738 48 48h272v831.957.021.022c0 .5944.0237 1.1825.0449 1.7715.002.069.003.1383.006.207.004.094.001.1889.006.2832.11659 2.5353.42421 5.02.91602 7.4356.31865 1.5651.71358 3.1026 1.17968 4.6074 5.84263 18.8635 22.95835 32.6728 43.54492 33.6367.003.0002.005-.0001.008 0 .52166.025 1.0443.033 1.5664.041.24356 0 .48408.018.72852.018l832.00046.0001v271.9995c0 26.592 21.408 48 48 48s47.0897-21.4235 47.9999-48v-272h272c26.592 0 48-21.408 48-48s-21.4172-48.6977-48-48h-272.0004v-812.11715l212.2598-212.25976c18.8034-18.80339 18.8034-49.07943 0-67.88282-18.8034-18.80338-49.0794-18.80339-67.8828 0l-212.2598 212.25977-812.1176-.00004v-272c0-26.592-21.408-48-48-48zm48 416 716.1176.00004-716.1176 716.11906zm784.0004 67.88481v716.11519h-716.11564z"/></svg>