<svg height="1069.6874" viewBox="0 0 1557.2754 1069.6874" width="1557.2754" xmlns="http://www.w3.org/2000/svg"><path d="m1027.4998-.00003907a32.003197 32.003197 0 0 1 22.7501 9.49979997l497.75 502.8127891a32.003197 32.003197 0 0 1 0 45.0624l-497.75 502.81265a32.003197 32.003197 0 0 1 -22.7501 9.4998h-995.4998a32.003197 32.003197 0 0 1 -32-32v-1005.687439a32.003197 32.003197 0 0 1 32-32.00000007zm-13.3747 64.00000007h-950.1251v941.687439h950.1251l466.0623-470.87495zm-123.87524 167.249869a32.0032 32.0032 0 0 1 22.3126 54.9376l-248.6877 248.62502 248.6877 248.6873a32.0032 32.0032 0 1 1 -45.2502 45.2503l-248.6874-248.6877-248.68726 248.6877a32.0032 32.0032 0 1 1 -45.2503-45.2503l248.68766-248.6873-248.68766-248.62502a32.0032 32.0032 0 0 1 23.2503-54.9376 32.0032 32.0032 0 0 1 22 9.68774l248.68726 248.68728 248.6874-248.68728a32.0032 32.0032 0 0 1 22.9376-9.68774z"/></svg>