<svg height="77.886337" width="76.474098" xmlns="http://www.w3.org/2000/svg"><path d="m16.180668 10.600418-16.18066751 19.699012 6.88890711 1.574244 20.4382624-18.726063 5.742636-13.1476109z" fill="#999"/><path d="m.00000049 30.29943 6.14090001 24.728013 10.6841935 16.856982.462309-14.309789-10.3984954-25.700962z" fill="#555"/><path d="m59.648967 6.0019131-26.579161-6.001913-5.742636 13.1476109 23.030037 14.127596 19.975953-4.416274z" fill="#ccc"/><path d="m17.287403 57.574636-.462309 14.309789 26.579161 6.001912 16.889138-10.600418-16.141131-12.553313z" fill="#666"/><path d="m27.32717 13.147611-20.4382624 18.726063 10.3984954 25.700962 26.864859-2.84203 6.204945-27.457399z" fill="#888"/><path d="m50.357207 27.275207-6.204945 27.457399 16.141131 12.553313 16.180705-19.699012-6.140938-24.727974z" fill="#bbb"/></svg>