<svg height="1431.0294" viewBox="0 0 1423.3929 1431.0294" width="1423.3929" xmlns="http://www.w3.org/2000/svg"><path d="m47.302734.00585938a47.999998 47.999998 0 0 0 -33.24414 14.05468762 47.999998 47.999998 0 0 0  .001953 67.882812l633.568363 633.568361-633.570316 633.56448a47.999998 47.999998 0 0 0  .003906 67.8847 47.999998 47.999998 0 0 0 67.880859 0l633.566411-633.57028 67.88281-67.8789-67.88281-67.88281-633.566411-633.568363a47.999998 47.999998 0 0 0 -34.640625-14.05468762zm639.998046.01171875a47.999998 47.999998 0 0 0 -33.24219 14.05273387 47.999998 47.999998 0 0 0  .00196 67.884766l633.56835 633.566402-633.57031 633.56642a47.999998 47.999998 0 0 0  .00196 67.8848 47.999998 47.999998 0 0 0 67.88281 0l633.56444-633.5684 67.8848-67.87891-67.8848-67.88281-633.56444-633.570314a47.999998 47.999998 0 0 0 -34.64258-14.05468787z"/></svg>