<svg height="1431.0294" viewBox="0 0 1423.3929 1431.0294" width="1423.3929" xmlns="http://www.w3.org/2000/svg"><path d="m1376.0918.00585938a47.999998 47.999998 0 0 0 -34.6426 14.05468762l-633.56639 633.568363-67.88281 67.88281 67.88281 67.8789 633.56839 633.57028a47.999998 47.999998 0 0 0 67.8828 0 47.999998 47.999998 0 0 0 0-67.8847l-633.57033-633.56448 633.57033-633.568361a47.999998 47.999998 0 0 0 0-67.882812 47.999998 47.999998 0 0 0 -33.2422-14.05468762zm-640 .01171875a47.999998 47.999998 0 0 0 -34.64258 14.05468787l-633.564454 633.568354-67.884766 67.88086 67.884766 67.88086 633.566404 633.57036a47.999998 47.999998 0 0 0 67.88086 0 47.999998 47.999998 0 0 0  .00195-67.8848l-633.56836-633.56642 633.56836-633.566402a47.999998 47.999998 0 0 0 0-67.884766 47.999998 47.999998 0 0 0 -33.24218-14.05273387z"/></svg>