<svg height="1696" viewBox="0 0 2016 1696" width="2016" xmlns="http://www.w3.org/2000/svg"><path d="m432 384c-26.592 0-48 21.408-48 48v.002c0 26.59201 21.408 48 48 48h1152c26.592 0 48-21.40799 48-48v-.002c0-26.592-21.408-48-48-48zm0 416c-26.592 0-48 21.408-48 48s21.408 48 48 48h1152c26.592 0 48-21.408 48-48s-21.408-48-48-48zm0 416c-26.592 0-48 21.408-48 48s21.408 48 48 48h1152c26.592 0 48-21.408 48-48s-21.408-48-48-48z"/><rect fill="none" height="1632" rx="192" stroke="#000" stroke-linecap="round" stroke-width="64" width="1952" x="32" y="32"/></svg>