<svg height="1314.743" viewBox="0 0 1305.5977 1314.743" width="1305.5977" xmlns="http://www.w3.org/2000/svg"><path d="m921.5977 17.369573v64h288v224.000007h-160v64h160v255.99997h-288v64h288v256h-160v63.99995h160v224.0001h-288v64h288 96v-64-224.0001-63.99995-256-64-255.99997-64-224.000007-64h-96z"/><path d="m49.3715 908.80012q0 177.37148 85.9428 270.62868 87.7715 93.2571 213.9432 93.2571 126.1714 0 206.6286-60.3428 80.4571-62.1715 80.4571-193.8286 0-118.85725-126.1714-212.1144-54.8572-40.22858-122.5143-78.62859-67.657-40.22858-135.3141-82.28573-67.6576-42.05715-122.5148-87.77144-126.1714-106.05716-126.1714-246.85718 0-142.62859 102.4-226.74289 104.2286-84.11427 274.286-84.11427 171.8857 0 318.1715 74.97141 0 91.42858-27.4286 314.51433l-27.4286-7.31428q0-171.88575-84.1143-256.00005-84.1143-85.94286-193.8286-85.94286-107.886 0-173.7145 64.00001-65.8286 62.17143-65.8286 148.1143 0 85.94288 45.7143 148.11431 47.5428 60.34287 117.029 100.57145 71.3141 40.22858 153.5998 89.60001 82.2857 47.54287 151.7715 95.08573 71.3143 45.7143 117.0286 120.68574 47.5428 74.97144 47.5428 168.2286 0 168.2286-120.6857 254.1715-118.8572 85.9429-287.0858 85.9429-93.2574 0-192.0002-29.2572-96.9143-29.2571-159.0858-85.9428 0-117.0286 21.9429-296.2287z"/></svg>