<svg height="1280.0039" viewBox="0 0 1600 1280.0039" width="1600" xmlns="http://www.w3.org/2000/svg"><path d="m0 0v263.3164l21.94336-3.6582c0-148.72427 147.50519-223.08594 442.51562-223.08594v830.17381c0 130.4385-3.04732 216.38243-9.14258 257.83013-6.09525 34.1334-13.41 57.9049-21.94336 71.3145-7.3143 13.4095-20.11462 26.2098-38.40039 38.4003-17.06672 12.1906-36.57074 19.5033-58.51367 21.9415-20.72387 1.219-49.37182 1.83-85.94336 1.83l-3.6582 21.9414h563.20117l-3.65625-21.9414c-36.57154 0-65.21948-1.2201-85.94336-3.6582-20.72387-2.4381-40.2279-9.1418-58.51367-20.1133-18.28577-10.9714-31.08608-23.7717-38.40039-38.4003-20.72387-39.0097-31.08594-148.725-31.08594-329.14463v-830.17381c295.01043 0 442.51562 74.36167 442.51562 223.08594l18.2852 3.6582v-263.3164zm1216 0v64h288v224h-160v64h160v255.99997h-288v64h288v256h-160v64h160v224.00003h-288v64h288 96v-64-224.00003-64-256-64-255.99997-64-224-64h-96z"/></svg>