<svg height="1280.0002" viewBox="0 0 853.94299 1280.0002" width="853.94299" xmlns="http://www.w3.org/2000/svg"><path d="m853.94299 0v263.31433l-20.1143-3.65714q0-120.68574-129.82859-168.228599-128-49.37144-391.3143-49.37144v576.000089q106.0572-3.65714 164.5714-10.97143 60.3429-9.14285 91.4286-34.74286 31.0858-27.42857 38.4-58.51429 7.3143-31.08572 7.3143-95.08573l21.9429-3.65715v444.34293l-21.9429-3.65714q0-84.1143-18.2857-120.68574-16.4571-36.57143-80.4571-54.85715-62.1715-18.28571-202.9715-21.94286v208.45718q0 259.6572 23.7714 303.5429 10.9715 23.7714 23.7715 45.7143 14.6285 20.1143 42.0571 27.4286 58.5143 14.6286 142.6286 14.6286l3.6571 21.9428h-548.5715l3.6572-21.9428q91.4286 0 133.4857-34.7429 45.7143-38.4 45.7143-356.5715v-453.48579q0-195.65717-12.8-266.97147-10.9714-73.142869-32.9143-91.428589-42.0571-34.74286-133.4857-34.74286l-3.6572-20.114291z"/></svg>