<svg height="1791.9996" viewBox="0 0 1791.9994 1791.9996" width="1791.9994" xmlns="http://www.w3.org/2000/svg"><path d="m896 0c-26.59107 0-48 21.40768-48 48v320c0 26.59264 21.40893 48 48 48 26.5923 0 48-21.40736 48-48v-320c0-26.59232-21.4077-48-48-48zm-599.625 248.3125c-12.26944 0-24.53558 4.72884-33.9375 14.125-18.80288 18.80416-18.80288 49.07212 0 67.875l226.25 226.25c18.80256 18.80416 49.07116 18.80416 67.875 0 18.80288-18.80384 18.80288-49.07116 0-67.875l-226.25-226.25c-9.39968-9.39968-21.66934-14.125-33.9375-14.125zm1199.252.01758c-12.2698 0-24.5398 4.69987-33.9415 14.10156l-1199.25386 1199.25386c-18.80338 18.8034-18.80338 49.0795 0 67.8829 18.80338 18.8033 49.07943 18.8033 67.88281 0l1199.25395-1199.25395c18.8033-18.80338 18.8033-49.07943 0-67.88281-9.4017-9.40169-21.6717-14.10156-33.9414-14.10156zm-599.627 327.66992a320 320 0 0 0 -320 320 320 320 0 0 0 16.29688 100.05469l80.6914-80.69141a223.99999 223.99999 0 0 1 -.98828-19.36328 223.99999 223.99999 0 0 1 224-224 223.99999 223.99999 0 0 1 19.38086.9707l80.54687-80.54687a320 320 0 0 0 -99.92773-16.42383zm303.7031 219.94336-80.6914 80.69141a223.99999 223.99999 0 0 1 .9883 19.36523 223.99999 223.99999 0 0 1 -224 224 223.99999 223.99999 0 0 1 -19.38281-.9707l-80.54688 80.5469a320 320 0 0 0 99.92969 16.4238 320 320 0 0 0 320-320 320 320 0 0 0 -16.2969-100.05664zm-1151.7031 52.05664c-26.59136 0-48 21.4074-48 48 0 26.5923 21.40864 48 48 48h320c26.59136 0 48-21.4077 48-48 0-26.5926-21.40864-48-48-48h-320zm1376 0c-26.5923 0-48 21.4074-48 48 0 26.5923 21.4077 48 48 48h320c26.5923 0 48-21.4077 48-48 0-26.5926-21.4077-48-48-48h-320zm-154.625 373.3125c-12.2717 0-24.5365 4.7285-33.9375 14.125-18.8038 18.8039-18.8038 49.0712 0 67.875l226.25 226.25c18.8038 18.8029 49.0725 18.8029 67.875 0 18.8042-18.8038 18.8042-49.0725 0-67.875l-226.25-226.25c-9.3997-9.3997-21.668-14.125-33.9375-14.125zm-373.375 154.6875c-26.59107 0-48 21.4074-48 48v320c0 26.5923 21.40893 48 48 48 26.5923 0 48-21.4077 48-48v-320c0-26.5926-21.4077-48-48-48z"/></svg>