<svg height="1791.9996" viewBox="0 0 1791.9994 1791.9996" width="1791.9994" xmlns="http://www.w3.org/2000/svg"><path d="m895.99971-.00004621c-26.59107 0-47.99971 21.40736021-47.99971 47.99968021v319.999676c0 26.59264 21.40864 48.00096 47.99971 48.00096 26.5923 0 47.9997-21.40832 47.9997-48.00096v-319.999676c0-26.59232-21.4074-47.99968021-47.9997-47.99968021zm-599.62499 248.31295621c-12.26944 0-24.53568 4.728-33.9376 14.12416-18.80288 18.80416-18.80288 49.07232 0 67.8752l226.25024 226.24992c18.80256 18.80416 49.07104 18.80416 67.87488 0 18.80288-18.80384 18.80288-49.07104 0-67.87488l-226.24992-226.25024c-9.39968-9.39968-21.66944-14.12416-33.9376-14.12416zm1199.25028 0c-12.2695 0-24.5357 4.728-33.9377 14.12416l-226.2502 226.25024c-18.8038 18.80384-18.8038 49.07104 0 67.87488 18.8029 18.80416 49.0714 18.80416 67.8752 0l226.2499-226.24992c18.8042-18.80288 18.8042-49.07104 0-67.8752-9.3996-9.39968-21.6691-14.12416-33.9372-14.12416zm-599.62529 327.68704a320 320 0 0 0 -319.99971 319.99998 320 320 0 0 0 319.99971 319.99967 320 320 0 0 0 319.99969-319.99967 320 320 0 0 0 -319.99969-319.99998zm0 95.99936a223.99999 223.99999 0 0 1 224.00059 224.00062 223.99999 223.99999 0 0 1 -224.00059 224.00027 223.99999 223.99999 0 0 1 -224.00035-224.00027 223.99999 223.99999 0 0 1 224.00035-224.00062zm-848.00003 176.00092c-26.59136 0-47.99968 21.4071-47.99968 47.9997 0 26.5923 21.40832 47.9994 47.99968 47.9994h319.99968c26.59136 0 48.00064-21.4071 48.00064-47.9994 0-26.5926-21.40928-47.9997-48.00064-47.9997zm1376.00032 0c-26.5923 0-48.0006 21.4071-48.0006 47.9997 0 26.5923 21.4083 47.9994 48.0006 47.9994h320c26.5923 0 47.9994-21.4071 47.9994-47.9994 0-26.5926-21.4071-47.9997-47.9994-47.9997zm-901.37536 373.31257c-12.26816 0-24.53664 4.728-33.93728 14.1245l-226.25024 226.2503c-18.80288 18.8025-18.80288 49.071 0 67.8748 18.80288 18.8029 49.07232 18.8029 67.8752 0l226.24992-226.2502c18.80288-18.8038 18.80288-49.071 0-67.8749-9.39968-9.3997-21.66464-14.1245-33.9376-14.1245zm746.75006 0c-12.2717 0-24.5366 4.728-33.9376 14.1245-18.8038 18.8039-18.8038 49.0711 0 67.8749l226.2503 226.2502c18.8038 18.8029 49.0723 18.8029 67.8748 0 18.8042-18.8038 18.8042-49.0723 0-67.8748l-226.2499-226.2503c-9.3997-9.3997-21.6681-14.1245-33.9376-14.1245zm-373.37499 154.6864c-26.59107 0-47.99971 21.4084-47.99971 48.001v319.9997c0 26.5923 21.40864 47.9997 47.99971 47.9997 26.5923 0 47.9997-21.4074 47.9997-47.9997v-319.9997c0-26.5926-21.4074-48.001-47.9997-48.001z"/></svg>