<svg height="1536" viewBox="0 0 1536 1536" width="1536" xmlns="http://www.w3.org/2000/svg"><path d="m768 0c-203.68626 0-399.03065 80.913469-543.05859 224.94141-144.027941 144.02794-224.94141 339.37233-224.94141 543.05859s80.913469 399.0307 224.94141 543.0586c144.02794 144.0279 339.37233 224.9414 543.05859 224.9414s399.0307-80.9135 543.0586-224.9414 224.9414-339.37234 224.9414-543.0586-80.9135-399.03065-224.9414-543.05859c-144.0279-144.027941-339.37234-224.94141-543.0586-224.94141l0 0m0 96c175.92918 0 350.7751 72.4235 475.1758 196.82422s196.8242 299.24659 196.8242 475.17578c0 175.9292-72.4235 350.7751-196.8242 475.1758s-299.24662 196.8242-475.1758 196.8242c-175.92919 0-350.77506-72.4235-475.17578-196.8242s-196.82422-299.2466-196.82422-475.1758c0-175.92919 72.4235-350.77506 196.82422-475.17578s299.24659-196.82422 475.17578-196.82422l0 0"/><path d="m768 96c-32.13674 0-64.23643 2.428117-96 7.13672v1329.72658c31.76357 4.7086 63.86326 7.1367 96 7.1367 32.13673 0 64.23643-2.4281 96-7.1367v-1329.72658c-31.76357-4.708603-63.86327-7.13672-96-7.13672l0 0" fill="#777"/></svg>