<svg height="1600.001" viewBox="0 0 1838.3617 1600.001" width="1838.3617" xmlns="http://www.w3.org/2000/svg"><path d="m919.18016-.00003344-67.87389 67.87520044-837.250895 837.249913c-18.7405 18.7437-18.7405 49.1312 0 67.8749 18.7514 18.7824 49.18689 18.7824 67.93825 0l837.186535-837.24993 837.18794 837.24993c18.7517 18.7824 49.1869 18.7824 67.9385 0 18.7402-18.7437 18.7402-49.1312 0-67.8749l-837.25125-837.249913zm-527.99901 799.56291344-96.00064 96.0003v32.4374 672.00042h96.00064 288 95.99904v-416c0-79.529 64.47104-144 143.99997-144 79.52899 0 144.00004 64.471 144.00004 144v416h96.0004 288 96.0006v-672.00042-32.4374l-96.0006-96.0003v128.4377 576.00012h-288v-319.9997c0-132.5479-107.4516-240.00042-240.00045-240.00042-132.54813.001-239.99901 107.45252-239.99901 240.00042v319.9997h-288v-576.00012z"/></svg>