<svg height="1392" viewBox="0 0 1056 1392" width="1056" xmlns="http://www.w3.org/2000/svg"><path d="m528 219-24 24-9.94141 9.94141-217.78906 217.78906 33.94141 33.94141 193.78906-193.78907v770.23439l-193.78906-193.78908-33.94141 33.94141 217.78906 217.78907 33.94141 33.9414 251.73047-251.73047-33.94141-33.94141-193.78906 193.78908v-770.23439l193.78906 193.78907 33.94141-33.94141-227.73047-227.73047-24-24z"/><path d="m48 0h960c26.592 0 48 21.408 48 48s-21.408 48-48 48h-960c-26.592 0-48-21.408-48-48s21.408-48 48-48z"/><path d="m48 1296h960c26.592 0 48 21.408 48 48s-21.408 48-48 48h-960c-26.592 0-48-21.408-48-48s21.408-48 48-48z"/></svg>