<svg height="1392" viewBox="0 0 1056 1392" width="1056" xmlns="http://www.w3.org/2000/svg"><path d="m24 0c-13.296 0-24 10.704-24 24v1344c0 13.296 10.704 24 24 24h1008c13.296 0 24-10.704 24-24v-1344c0-13.296-10.704-24-24-24h-1008zm216 240h574.69922v912h-574.69922v-912z"/><path d="m72 48c-13.296 0-24 10.704-24 24v1248c0 13.296 10.704 24 24 24h910.69922c13.296 0 23.99998-10.704 23.99998-24v-1248c0-13.296-10.70398-24-23.99998-24h-910.69922zm168 192h574.69922v912h-574.69922v-912z" fill="#bbb"/><path d="m240 240v912h574.69922v-912h-574.69922zm48 48h478.69922v816h-478.69922v-816z"/></svg>