<svg height="1069.9426" viewBox="0 0 1829.6248 1069.9426" width="1829.6248" xmlns="http://www.w3.org/2000/svg"><path d="m1181.4364.00391147a32.002957 32.002957 0 0 1 31.5008 32.43839953c0 27.6096 22.9952 76.665599 65.5008 128.998399 42.5056 52.32961 102.304 108.73921 167.376 159.93921 65.0688 51.2 135.536 97.328 198.9344 130.1856 63.4016 32.85755 121.0528 51.37595 152.4384 51.37595a32.002957 32.002957 0 1 1 0 64c-31.3856 0-89.0368 18.5184-152.4384 51.376-63.3984 32.8576-133.8656 79.0496-198.9344 130.2496-65.0752 51.2-124.8704 107.6032-167.376 159.936-42.5056 52.3296-65.5008 101.39193-65.5008 129.00153a32.002957 32.002957 0 1 1 -64 0c0-56.14717 33.0304-111.77593 79.8112-169.37593 46.784-57.5968 109.5136-116.3776 177.5008-169.8752 64.7648-50.9568 134.0512-96.64 199.1872-131.312h-1572.998407a32.002957 32.002957 0 1 1 0-64h1572.937607c-65.1168-34.66875-134.384-80.31035-199.1264-131.25115-67.9872-53.4944-130.7168-112.2784-177.5008-169.8752-46.7808-57.60001-79.8112-113.225607-79.8112-169.372809a32.002957 32.002957 0 0 1 32.4992-32.43839953z"/></svg>