<svg height="1069.9426" viewBox="0 0 1500.5534 1069.9426" width="1500.5533" xmlns="http://www.w3.org/2000/svg"><path d="m648.18839.00391147c-17.64924.27530387-31.74312 14.78867153-31.5008 32.43839953 0 27.6096-22.9952 76.665599-65.5008 128.998399-42.5056 52.32961-102.304 108.73921-167.376 159.93921-65.0688 51.2-135.536 97.328-198.9344 130.1856-63.4016 32.85755-121.052797 51.37595-152.438397 51.37595-17.843247-.24258-32.4379781 14.15512-32.4379781 32s14.5947311 32.24258 32.4379781 32c31.3856 0 89.036797 18.5184 152.438397 51.376 63.3984 32.8576 133.8656 79.0496 198.9344 130.2496 65.0752 51.2 124.8704 107.6032 167.376 159.936 42.5056 52.3296 65.5008 101.39193 65.5008 129.00153-.24258 17.8432 14.15512 32.438 32 32.438s32.24258-14.5948 32-32.438c0-56.14717-33.0304-111.77593-79.8112-169.37593-46.784-57.5968-109.5136-116.3776-177.5008-169.8752-64.7648-50.9568-134.0512-96.64-199.1872-131.312h1243.92691c17.8432.24258 32.438-14.15512 32.438-32 0-17.84488-14.5948-32.24258-32.438-32h-1243.86611c65.1168-34.66875 134.384-80.31035 199.1264-131.25115 67.9872-53.4944 130.7168-112.2784 177.5008-169.8752 46.7808-57.60001 79.8112-113.225607 79.8112-169.372809.24769-18.040726-14.45897-32.7198685-32.4992-32.43839953z" transform="matrix(-1 0 0 1 1500.5533 .00007)"/></svg>