<svg height="1430.9972" viewBox="0 0 1615.9996 1430.9972" width="1615.9996" xmlns="http://www.w3.org/2000/svg"><path d="m881.31172 1430.9925a47.999997 47.999997 0 0 0 33.2515-14.0634l633.56158-633.56253 67.8748-67.874-67.8748-67.87481-633.56158-633.562596a47.999997 47.999997 0 0 0 -67.8749 0 47.999997 47.999997 0 0 0 0 67.8749l585.56158 585.561906h-904.2496a528 528 0 0 0 -528.0003 528.00033 47.999997 47.999997 0 0 0 48.0006 47.9997 47.999997 47.999997 0 0 0 47.9997-47.9997 432 432 0 0 1 432-432.00003h904.2496l-585.56158 585.56293a47.999997 47.999997 0 0 0 0 67.8739 47.999997 47.999997 0 0 0 34.6234 14.0634z"/></svg>