<svg height="1408.5942" viewBox="0 0 1408.5566 1408.5942" width="1408.5566" xmlns="http://www.w3.org/2000/svg"><path d="m889.10238.05397328a511.99997 511.99997 0 0 0 -354.56225 149.93791672 511.99997 511.99997 0 0 0 -32 688.18757l-488.43773 488.43774c-18.8032 18.8026-18.8032 49.0711 0 67.8749 18.8035 18.8029 49.0717 18.8029 67.8752 0l488.18749-488.18824a511.99997 511.99997 0 0 0 688.43751-32.2492 511.99997 511.99997 0 0 0 0-724.06277 511.99997 511.99997 0 0 0 -369.50022-149.93791672zm13.5626 96.00031972a416 416 0 0 1 288.06242 121.812807 416 416 0 0 1 0 588.31236 416 416 0 0 1 -588.31239 0 416 416 0 0 1 0-588.31236 416 416 0 0 1 300.24997-121.812807z"/></svg>