<svg height="1536" viewBox="0 0 1536 1536" width="1536" xmlns="http://www.w3.org/2000/svg"><path d="m120 0a120 120 0 0 0 -120 120 120 120 0 0 0 120 120 120 120 0 0 0 120-120 120 120 0 0 0 -120-120zm312 72c-26.592 0-48 21.408-48 48s21.408 48 48 48h672c26.592 0 48-21.408 48-48s-21.408-48-48-48h-672zm72 360a120 120 0 0 0 -120 120 120 120 0 0 0 120 120 120 120 0 0 0 120-120 120 120 0 0 0 -120-120zm312 72c-26.592 0-48 21.408-48 48s21.408 48 48 48h672c26.592 0 48-21.408 48-48s-21.408-48-48-48h-672zm-312 360a120 120 0 0 0 -120 120 120 120 0 0 0 120 120 120 120 0 0 0 120-120 120 120 0 0 0 -120-120zm312 72c-26.592 0-48 21.408-48 48s21.408 48 48 48h672c26.592 0 48-21.408 48-48s-21.408-48-48-48h-672zm-696 360a120 120 0 0 0 -120 120 120 120 0 0 0 120 120 120 120 0 0 0 120-120 120 120 0 0 0 -120-120zm312 72c-26.592 0-48 21.408-48 48s21.408 48 48 48h672c26.592 0 48-21.408 48-48s-21.408-48-48-48h-672z"/></svg>