<svg height="1430.9972" viewBox="0 0 1615.9996 1430.9972" width="1615.9996" xmlns="http://www.w3.org/2000/svg"><path d="m734.68795.00472173a47.999997 47.999997 0 0 0 -33.25152 14.06336027l-633.56163 633.562558-67.8748 67.87396 67.8748 67.8748 633.56163 633.5626a47.999997 47.999997 0 0 0 67.87488 0 47.999997 47.999997 0 0 0 0-67.8749l-585.56161-585.5619h904.2496a528 528 0 0 0 528.0003-528.00032 47.999997 47.999997 0 0 0 -48.0006-47.99968 47.999997 47.999997 0 0 0 -47.9997 47.99968 432 432 0 0 1 -432 432.00002h-904.2496l585.56161-585.562898a47.999997 47.999997 0 0 0 0-67.87392 47.999997 47.999997 0 0 0 -34.62336-14.06336027z"/></svg>