<svg height="85.667732mm" viewBox="0 0 48.1542 85.667735" width="48.154202mm" xmlns="http://www.w3.org/2000/svg" xmlns:xlink="http://www.w3.org/1999/xlink"><linearGradient id="a"><stop offset="0" stop-color="#858483"/><stop offset="1" stop-color="#dbbbb0"/></linearGradient><linearGradient id="b" gradientUnits="userSpaceOnUse" x1="118.729163995964" x2="118.729163995964" xlink:href="#a" y1="137.938328423777" y2="94.242901125751"/><linearGradient id="c" gradientUnits="userSpaceOnUse" x1="67.73333" x2="62.089233" xlink:href="#a" y1="156.29956" y2="231.12067"/><linearGradient id="d" gradientUnits="userSpaceOnUse" x1="25.4" x2="1.41128" xlink:href="#a" y1="224.0659" y2="233.94324"/><g stroke-width="2.813186" transform="scale(.35546883)"><path d="m430.43359 541.81445c-.1065.10054-.21157.20249-.31836.30274l-.13476.15039z" fill="#dbbbb0" transform="scale(.26458332)"/><g stroke-width="2.813186" transform="translate(1.668886)"><path d="m51.341669 7.075866-10.800742 13.149262 4.598406 1.050827 13.642716-12.499813 3.833254-8.776142z" fill="#ef8f6c"/><path d="m40.540927 20.225128 4.099113 16.506145 7.131791 11.25219.308589-9.551914-6.941087-17.155594z" fill="#d1724f"/><path d="m80.357123 4.006334-17.74182-4.006334-3.833254 8.776142 15.372738 9.430279 13.334135-2.947898z" fill="#fac9b7"/><path d="m52.08042 38.431549-.308589 9.551914 17.741821 4.006334 11.273636-7.075866-10.774336-8.379455z" fill="#e6784f"/><path d="m58.782049 8.776142-13.642716 12.499813 6.941087 17.155594 17.932532-1.897073 4.141835-18.328055z" fill="#eb835d"/><path d="m74.154787 18.206421-4.141835 18.328055 10.774336 8.379455 10.800744-13.149263-4.09911-16.506145z" fill="#f8aa8d"/></g><g stroke-width="2.813186"><path d="m59.267181 71.665277c-16.933334.000045-33.867183.000529-50.800521.000529-2.82222 0-5.64414-.000264-7.05538 1.410767-1.41125 1.41111-1.41125 4.233418 0 5.644618 1.41124 1.4112 4.23316 1.410853 7.05538 1.410766 2.82223 0 5.64496-.000045 8.46719 0 2.82222.000042 6.208712.000265 7.337536 1.129131 1.128821 1.128842 1.128612 4.515299 1.128612 28.504192v114.30053c0 2.82223-.000169 5.64411-1.411282 7.05538-1.41111 1.41123-4.233162 1.41128-7.055386 1.41128h-8.46667c-2.82222 0-5.64414 0-7.05538 1.41076-1.41125 1.4111-1.41128 4.23368-1.41128 7.05591h84.666665c0-2.82223.000082-5.64494-1.410767-7.05591-1.410845-1.411-4.233677-1.41076-7.0559-1.41076-5.644444 0-11.288414 0-14.110766-1.41181-2.822356-1.41132-2.822567-4.23262-2.822567-7.05485v-67.73335c16.933333 0 33.866693-.00015 46.566665-7.0559 12.69995-7.05576 21.16678-21.16691 21.16667-35.27795-.00013-14.111038-10.15974-31.044282-20.31968-36.688717-10.159978-5.644433-30.479806-5.644658-47.413139-5.644616zm-.000516 8.467183c11.288889 0 22.578242-.000215 28.222575 5.644099 5.644303 5.644314 5.644091 16.933161 5.644091 28.222051s.000212 22.57799-5.644091 28.22257c-5.64433 5.64457-16.933686 5.64461-28.222575 5.64461z" fill="#2d3132"/><g stroke-width="2.813186"><path d="m67.733846 63.198208c-16.933333.000045-33.867178.000529-50.800514.000529-2.82222 0-5.644142-.000265-7.0553826 1.410766l-8.4666661 8.467169c1.41124-1.411031 4.2331629-1.410766 7.0553829-1.410766 5.6397378 0 11.2795668.000074 16.9193798 0l .01447-.0011.03566.0011c11.277041-.000146 22.554119-.000529 33.831007-.000529 16.933332-.000043 37.253146.000182 47.413117 5.644615 10.15995 5.644435 20.31956 22.577678 20.31969 36.688718.00007 8.50119-3.07639 16.99969-8.29665 23.95822.009-.006.0173-.0122.0258-.0186l-.0196.0176-.0351.0393c-.94436 1.25589-1.95759 2.46158-3.0365 3.60753l6.72465-6.72466c.59511-.56214 1.17481-1.14021 1.73581-1.73581l.076-.076-.0336.03c7.0412-7.49762 11.326-17.5297 11.32593-27.56471-.00021-14.111076-10.15981-31.044322-20.31976-36.688757-10.15997-5.644433-30.479802-5.64466-47.413124-5.644615z" fill="url(#b)"/><path d="m90.752089 137.01736c-6.085466 2.38115-14.552289 2.38125-23.018749 2.38125l-8.466666 8.46719c11.288889 0 22.578236-.00005 28.222566-5.64462 1.411076-1.41114 2.469139-3.17531 3.262849-5.20382z" fill="#dbbbb0"/><path d="m67.73333 156.29691c-2.809639.0329-5.637281.0357-8.466666.0357v67.73333c0 2.82223.000211 5.64354 2.822567 7.05486 2.763538 1.3824 8.233245 1.41069 13.758848 1.41129h.351917v.00053h.000529c2.822051 0 5.644626-.00015 7.055384 1.41076 1.410849 1.41097 1.410767 4.23367 1.410767 7.0559l8.466666-8.46718c0-2.82223.000071-5.64493-1.410766-7.0559-1.410864-1.411-4.233669-1.41076-7.0559-1.41076-5.644444 0-11.288413.00001-14.110766-1.41181-2.822368-1.41133-2.82258-4.23265-2.82258-7.05487z" fill="url(#c)"/><path d="m16.933332 224.06538c-2.82222 0-5.644142.00001-7.0553826 1.41077l-8.4666661 8.46718c1.41124-1.41076 4.2331629-1.41077 7.0553829-1.41077h8.4666658l-.000529-.00052h.176217c2.762909-.00053 5.497928-.0289 6.879683-1.41077 1.411125-1.41126 1.411296-4.23314 1.411296-7.05537v-.00053z" fill="url(#d)"/><path d="m59.266674 80.132476 8.466666.09103v59.175104l-8.466666 8.4672z" fill="#858483"/></g></g></g></svg>