<svg height="85.667732mm" viewBox="0 0 48.1542 85.667735" width="48.154202mm" xmlns="http://www.w3.org/2000/svg" xmlns:xlink="http://www.w3.org/1999/xlink"><linearGradient id="a" gradientUnits="userSpaceOnUse" x1="42.20451701396" x2="42.20451701396" y1="49.03277606632" y2="33.50041375428"><stop offset="0" stop-color="#858483"/><stop offset="1" stop-color="#c7c6c6"/></linearGradient><linearGradient id="b" gradientUnits="userSpaceOnUse" x1="24.0770875671" x2="22.07078701011" y1="55.55962172271" y2="82.15619415372"><stop offset="0" stop-color="#858483"/><stop offset="1" stop-color="#c8c4c3"/></linearGradient><linearGradient id="c" gradientUnits="userSpaceOnUse" x1="9.028908282" x2=".5016660504" y1="79.6484433159" y2="83.15952980921"><stop offset="0" stop-color="#858483"/><stop offset="1" stop-color="#c5c5c5"/></linearGradient><path d="m18.8436 2.5152498-3.839327 4.6741528 1.63459.3735362 4.84956-4.4432939 1.362602-3.1196449z" fill="#fee265"/><path d="m15.004273 7.1894026 1.457107 5.8674204 2.535129 3.999802.109694-3.395407-2.46734-6.0982792z" fill="#fcc73b"/><path d="m29.157689 1.4241269-6.306664-1.4241269-1.362602 3.1196449 5.464529 3.3521703 4.73987-1.0478859z" fill="#fcf39a"/><path d="m19.106203 13.661218-.109694 3.395407 6.306664 1.424127 4.007427-2.515249-3.829941-2.978636z" fill="#fdd149"/><path d="m21.488423 3.1196449-4.84956 4.4432939 2.46734 6.0982792 6.374456-.674351 1.472293-6.5150518z" fill="#fcd959"/><path d="m26.952952 6.4718152-1.472293 6.5150518 3.829941 2.978636 3.839328-4.674154-1.457106-5.8674197z" fill="#feeb70"/><path d="m40.482761 50.958256c-.01002.0095-.0199.01904-.02994.02847l-.01267.01414z" fill="#dbbbb0" stroke-width=".264583"/><path d="m21.067635 25.474772c-6.019272.000016-12.0387274.000188-18.0580013.000188-1.0032112 0-2.0063158-.000094-2.50796765.501484-.50165539.501606-.50165539 1.504848 0 2.006486.50165185.501637 1.50475645.501514 2.50796765.501483 1.0032148 0 2.0066074-.000016 3.0098221 0 1.0032113.000015 2.2070036.000094 2.6082654.401371.4012607.401268.4011864 1.605048.4011864 10.132352v40.630275c0 1.003215-.0000601 2.006306-.5016668 2.507968-.5016056.501648-1.5047571.501666-2.5079698.501666h-3.0096373c-1.0032112 0-2.0063158 0-2.50796765.501481-.50165539.501602-.50166605 1.504942-.50166605 2.508156h30.09636c0-1.003214.000029-2.0066-.501483-2.508156-.501512-.501566-1.504941-.501481-2.508153-.501481-2.006424 0-4.012679 0-5.015937-.501854-1.00326-.501681-1.003335-1.504565-1.003335-2.50778v-24.077094c6.019272 0 12.038554-.000054 16.552998-2.508153 4.514436-2.508103 7.524131-7.524177 7.524091-12.540211-.000046-5.016035-3.61147-11.035275-7.223012-13.041696-3.611556-2.00642-10.834621-2.0065-16.853894-2.006485zm-.000183 3.00982c4.012848 0 8.025861-.000077 10.032246 2.006301 2.006374 2.006378 2.006298 6.019211 2.006298 10.03206 0 4.012848.000076 8.025771-2.006298 10.032243-2.006384 2.006469-6.019398 2.006483-10.032246 2.006483z" fill="#1b1e1f"/><path d="m24.077271 22.464993c-6.019272.000016-12.038726.000188-18.0579993.000188-1.0032112 0-2.0063165-.000094-2.5079686.501483l-3.00963588 3.009815c.50165188-.501577 1.50475748-.501483 2.50796868-.501483 2.004751 0 4.0095344.000026 6.0143122 0l.00514-.000391.012676.000391c4.0086359-.000052 8.0172859-.000188 12.0258679-.000188 6.019272-.000016 13.242332.000064 16.853885 2.006484 3.611546 2.006421 7.222971 8.025661 7.223017 13.041696.000025 3.021908-1.093561 6.04286-2.949201 8.5164.0032-.0021.0061-.0043.0092-.0066l-.007.0063-.01248.01397c-.33569.44643-.695862.875015-1.079381 1.282364l2.390404-2.390407c.211543-.199823.417608-.405309.617026-.617026l.02702-.02702-.01194.01066c2.502927-2.66517 4.02604-6.231261 4.026015-9.798395-.000075-5.016047-3.611496-11.035289-7.223041-13.041709-3.611553-2.00642-10.83462-2.006501-16.853888-2.006485z" fill="url(#a)"/><path d="m32.259539 48.705401c-2.163194.846424-5.172885.84646-8.182448.84646l-3.009636 3.009822c4.012848 0 8.025859-.000018 10.032243-2.006487.501593-.501616.877702-1.128723 1.159841-1.849795z" fill="#c7c5c4"/><path d="m24.077088 55.55868c-.99874.01169-2.003878.01269-3.009636.01269v24.077088c0 1.003214.000075 2.006102 1.003334 2.507782.982352.4914 2.926662.501457 4.890842.50167h.125095v.000188h.000188c1.003152 0 2.006489-.000053 2.50797.501482.501512.501555.501483 1.504937.501483 2.508152l3.009636-3.009818c0-1.003215.000025-2.006597-.501483-2.508153-.501518-.501567-1.504938-.501481-2.508153-.501481-2.006424 0-4.012679.000003-5.015937-.501855-1.003264-.501683-1.003339-1.504575-1.003339-2.507786z" fill="url(#b)"/><path d="m6.0192717 79.648258c-1.0032112 0-2.0063165.000004-2.5079686.501485l-3.00963588 3.009819c.50165188-.501481 1.50475748-.501485 2.50796868-.501485h3.0096358l-.000188-.000185h.06264c.9821281-.000188 1.9543421-.01027 2.4455129-.501485.5016109-.501659.5016717-1.504749.5016717-2.507964v-.000188z" fill="url(#c)"/><path d="m21.067455 28.484597 3.009636.03236v21.034905l-3.009636 3.009825z" fill="#858483"/></svg>