<svg height="90mm" viewBox="0 0 90 90" width="90mm" xmlns="http://www.w3.org/2000/svg" xmlns:xlink="http://www.w3.org/1999/xlink"><marker id="a" orient="auto" overflow="visible" refX="0.0" refY="0.0"><path d="m-2.5-1c0 2.76-2.24 5-5 5s-5-2.24-5-5 2.24-5 5-5 5 2.24 5 5z" fill="#918a6f" fill-rule="evenodd" stroke="#918a6f" stroke-width="1pt" transform="matrix(.2 0 0 .2 1.48 .2)"/></marker><marker id="b" orient="auto" overflow="visible" refX="0.0" refY="0.0"><path d="m-2.5-1c0 2.76-2.24 5-5 5s-5-2.24-5-5 2.24-5 5-5 5 2.24 5 5z" fill="#918a6f" fill-rule="evenodd" stroke="#918a6f" stroke-width="1pt" transform="matrix(.2 0 0 .2 1.48 .2)"/></marker><marker id="c" orient="auto" overflow="visible" refX="0.0" refY="0.0"><path d="m-2.5-1c0 2.76-2.24 5-5 5s-5-2.24-5-5 2.24-5 5-5 5 2.24 5 5z" fill="#918a6f" fill-rule="evenodd" stroke="#918a6f" stroke-width="1pt" transform="matrix(.2 0 0 .2 1.48 .2)"/></marker><marker id="d" orient="auto" overflow="visible" refX="0.0" refY="0.0"><path d="m-2.5-1c0 2.76-2.24 5-5 5s-5-2.24-5-5 2.24-5 5-5 5 2.24 5 5z" fill="#918a6f" fill-rule="evenodd" stroke="#918a6f" stroke-width="1pt" transform="matrix(.2 0 0 .2 1.48 .2)"/></marker><marker id="e" orient="auto" overflow="visible" refX="0.0" refY="0.0"><path d="m-2.5-1c0 2.76-2.24 5-5 5s-5-2.24-5-5 2.24-5 5-5 5 2.24 5 5z" fill="#918a6f" fill-rule="evenodd" stroke="#918a6f" stroke-width="1pt" transform="matrix(.2 0 0 .2 1.48 .2)"/></marker><marker id="f" orient="auto" overflow="visible" refX="0.0" refY="0.0"><path d="m-2.5-1c0 2.76-2.24 5-5 5s-5-2.24-5-5 2.24-5 5-5 5 2.24 5 5z" fill="#918a6f" fill-rule="evenodd" stroke="#918a6f" stroke-width="1pt" transform="matrix(.2 0 0 .2 1.48 .2)"/></marker><marker id="g" orient="auto" overflow="visible" refX="0.0" refY="0.0"><path d="m-2.5-1c0 2.76-2.24 5-5 5s-5-2.24-5-5 2.24-5 5-5 5 2.24 5 5z" fill-rule="evenodd" stroke="#000" stroke-width="1pt" transform="matrix(.2 0 0 .2 1.48 .2)"/></marker><marker id="h" orient="auto" overflow="visible" refX="0.0" refY="0.0"><path d="m-2.5-1c0 2.76-2.24 5-5 5s-5-2.24-5-5 2.24-5 5-5 5 2.24 5 5z" fill-rule="evenodd" stroke="#000" stroke-width="1pt" transform="matrix(.2 0 0 .2 1.48 .2)"/></marker><marker id="i" orient="auto" overflow="visible" refX="0.0" refY="0.0"><path d="m-2.5-1c0 2.76-2.24 5-5 5s-5-2.24-5-5 2.24-5 5-5 5 2.24 5 5z" fill-rule="evenodd" stroke="#000" stroke-width="1pt" transform="matrix(.2 0 0 .2 1.48 .2)"/></marker><marker id="j" orient="auto" overflow="visible" refX="0.0" refY="0.0"><path d="m-2.5-1c0 2.76-2.24 5-5 5s-5-2.24-5-5 2.24-5 5-5 5 2.24 5 5z" fill-rule="evenodd" stroke="#000" stroke-width="1pt" transform="matrix(.2 0 0 .2 1.48 .2)"/></marker><marker id="k" orient="auto" overflow="visible" refX="0.0" refY="0.0"><path d="m-2.5-1c0 2.76-2.24 5-5 5s-5-2.24-5-5 2.24-5 5-5 5 2.24 5 5z" fill-rule="evenodd" stroke="#000" stroke-width="1pt" transform="matrix(.2 0 0 .2 1.48 .2)"/></marker><marker id="l" orient="auto" overflow="visible" refX="0.0" refY="0.0"><path d="m-2.5-1c0 2.76-2.24 5-5 5s-5-2.24-5-5 2.24-5 5-5 5 2.24 5 5z" fill-rule="evenodd" stroke="#000" stroke-width="1pt" transform="matrix(.2 0 0 .2 1.48 .2)"/></marker><marker id="m" orient="auto" overflow="visible" refX="0.0" refY="0.0"><path d="m-2.5-1c0 2.76-2.24 5-5 5s-5-2.24-5-5 2.24-5 5-5 5 2.24 5 5z" fill-rule="evenodd" stroke="#000" stroke-width="1pt" transform="matrix(.2 0 0 .2 1.48 .2)"/></marker><marker id="n" orient="auto" overflow="visible" refX="0.0" refY="0.0"><path d="m-2.5-1c0 2.76-2.24 5-5 5s-5-2.24-5-5 2.24-5 5-5 5 2.24 5 5z" fill-rule="evenodd" stroke="#000" stroke-width="1pt" transform="matrix(.2 0 0 .2 1.48 .2)"/></marker><marker id="o" orient="auto" overflow="visible" refX="0.0" refY="0.0"><path d="m-2.5-1c0 2.76-2.24 5-5 5s-5-2.24-5-5 2.24-5 5-5 5 2.24 5 5z" fill="#918a6f" fill-rule="evenodd" stroke="#918a6f" stroke-width="1pt" transform="matrix(.2 0 0 .2 1.48 .2)"/></marker><path d="m63.499999 7.9375h18.520834v18.520833" fill="none" marker-end="url(#o)" marker-start="url(#o)" stroke="#918a6f" stroke-width="2"/><circle cx="44.979168" cy="44.979168" fill="#e3e2db" r="13.229166"/><g fill="none" stroke-width="2"><path d="m33.113361 23.206396 11.906249-21.166667 11.90625 21.166667" marker-end="url(#m)" marker-start="url(#n)" stroke="#000"/><path d="m23.206396 56.88664-21.1666671-11.90625 21.1666671-11.90625" marker-end="url(#k)" marker-start="url(#l)" stroke="#000"/><path d="m56.88664 66.793603-11.90625 21.166668-11.90625-21.166668" marker-end="url(#i)" marker-start="url(#j)" stroke="#000"/><path d="m66.793603 33.11336 21.166668 11.90625-21.166668 11.90625" marker-end="url(#g)" marker-start="url(#h)" stroke="#000"/><path d="m7.9375 26.458334v-18.520834h18.520833" marker-end="url(#e)" marker-start="url(#f)" stroke="#918a6f"/><path d="m26.458334 82.020833h-18.520834v-18.520833" marker-end="url(#c)" marker-start="url(#d)" stroke="#918a6f"/><path d="m82.020833 63.499999v18.520834h-18.520832" marker-end="url(#a)" marker-start="url(#b)" stroke="#918a6f"/></g></svg>