<svg height="560" viewBox="0 0 118.53333 158.04445" width="420" xmlns="http://www.w3.org/2000/svg"><path d="m0 0h118.53333v158.04445h-118.53333z" fill="#fffbef" stroke-linecap="round" stroke-width="18.0622"/><path d="m11.688351 146.41222-11.688351-11.68859v-.16875-.16875l5.8759935 5.87554 5.8760035 5.87554 11.836362-11.83614 11.836371-11.83614v-43.456575-43.456585l-11.815119-11.815344-11.815119-11.815344-5.8972461 5.896794-5.8972459 5.896792v-.168979-.168981l11.688582-11.688353 11.688583-11.688355h.168749.16875l-5.87554 5.8759967-5.87554 5.8759973 11.83614 11.836366 11.83614 11.836366h23.672854 23.672851l11.815349-11.815118 11.815332-11.815118-5.89679-5.8972449-5.896786-5.8972451h.168971.168982l11.688353 11.688583 11.68835 11.688583v.168749.16875l-5.87599-5.87554-5.876-5.87554-11.836361 11.83614-11.836366 11.836139v43.456585 43.456571l11.815124 11.81535 11.815103 11.81534 5.89725-5.89679 5.89724-5.89679v.16897.16898l-11.68858 11.68836-11.688577 11.68835h-.16875-.168749l5.875536-5.87599 5.87554-5.876-11.836136-11.83637-11.836139-11.83636h-23.672851-23.672853l-11.815341 11.81512-11.815351 11.81511 5.896792 5.89725 5.896803 5.89724h-.168981-.168982zm71.25117-67.361818v-43.456584h-23.67285-23.672848v43.456584 43.456578h23.672848 23.67285z" fill="#666" stroke-width=".084546"/><g fill="#454545"><g transform="translate(19.524053 5.08)"><path d="m38.231401 16.273187h1.275645v-7.90223h-1.106312v4.730049l-1.275646-4.730049h-1.557868v7.90223h1.117601v-5.723472z"/><path d="m40.249115 10.267492c0 2.25778 2.427114 2.562581 2.427114 4.188182 0 .564445-.248356.767646-.643467.767646-.395112 0-.643468-.203201-.643468-.767646v-.564445h-1.174045v.485423c0 1.264357.632178 1.986846 1.851379 1.986846 1.219202 0 1.85138-.722489 1.85138-1.986846 0-2.25778-2.427113-2.56258-2.427113-4.188182 0-.5644451.225778-.7789342.620889-.7789342.395112 0 .62089.2144891.62089.7789342v.327378h1.174045v-.248356c0-1.2643566-.620889-1.9868462-1.828802-1.9868462-1.207912 0-1.828802.7224896-1.828802 1.9868462z"/></g><g transform="translate(61.639541 66.70015)"><path d="m36.820288 9.499847h2.144891v-1.12889h-3.38667v7.90223h3.38667v-1.12889h-2.144891v-2.314224h1.704624v-1.12889h-1.704624z"/><path d="m39.565608 10.267492c0 2.25778 2.427113 2.562581 2.427113 4.188182 0 .564445-.248356.767646-.643467.767646-.395112 0-.643467-.203201-.643467-.767646v-.564445h-1.174046v.485423c0 1.264357.632178 1.986846 1.85138 1.986846 1.219201 0 1.851379-.722489 1.851379-1.986846 0-2.25778-2.427113-2.56258-2.427113-4.188182 0-.5644451.225778-.7789342.620889-.7789342.395112 0 .62089.2144891.62089.7789342v.327378h1.174045v-.248356c0-1.2643566-.620889-1.9868462-1.828802-1.9868462-1.207912 0-1.828801.7224896-1.828801 1.9868462z"/></g><g transform="translate(-23.143114 66.70015)"><path d="m38.784557 16.273187h1.648179l.880535-7.90223h-1.083735l-.643467 6.276629-.62089-6.276629h-1.196623l-.598312 6.231473-.666045-6.231473h-1.207912l.880534 7.90223h1.704624l.451556-4.21076z"/><path d="m41.770471 10.267492c0 2.25778 2.427114 2.562581 2.427114 4.188182 0 .564445-.248356.767646-.643468.767646-.395111 0-.643467-.203201-.643467-.767646v-.564445h-1.174046v.485423c0 1.264357.632179 1.986846 1.85138 1.986846s1.85138-.722489 1.85138-1.986846c0-2.25778-2.427114-2.56258-2.427114-4.188182 0-.5644451.225778-.7789342.62089-.7789342.395111 0 .620889.2144891.620889.7789342v.327378h1.174046v-.248356c0-1.2643566-.62089-1.9868462-1.828802-1.9868462s-1.828802.7224896-1.828802 1.9868462z"/></g><g transform="translate(19.923045 127.39662)"><path d="m35.420465 10.267492c0 2.25778 2.427113 2.562581 2.427113 4.188182 0 .564445-.248356.767646-.643467.767646-.395112 0-.643468-.203201-.643468-.767646v-.564445h-1.174045v.485423c0 1.264357.632178 1.986846 1.851379 1.986846 1.219202 0 1.85138-.722489 1.85138-1.986846 0-2.25778-2.427113-2.56258-2.427113-4.188182 0-.5644451.225778-.7789342.620889-.7789342.395112 0 .62089.2144891.62089.7789342v.327378h1.174045v-.248356c0-1.2643566-.620889-1.9868462-1.828802-1.9868462-1.207912 0-1.828801.7224896-1.828801 1.9868462z"/><path d="m39.631753 10.267492c0 2.25778 2.427114 2.562581 2.427114 4.188182 0 .564445-.248356.767646-.643467.767646-.395112 0-.643468-.203201-.643468-.767646v-.564445h-1.174045v.485423c0 1.264357.632178 1.986846 1.851379 1.986846 1.219202 0 1.85138-.722489 1.85138-1.986846 0-2.25778-2.427113-2.56258-2.427113-4.188182 0-.5644451.225778-.7789342.620889-.7789342.395112 0 .62089.2144891.62089.7789342v.327378h1.174045v-.248356c0-1.2643566-.620889-1.9868462-1.828802-1.9868462-1.207912 0-1.828802.7224896-1.828802 1.9868462z"/></g><g transform="translate(19.625741 66.70015)"><path d="m38.005623 13.326784v1.12889c0 .564445-.248356.767646-.643468.767646-.395111 0-.643467-.203201-.643467-.767646v-4.267204c0-.5644451.248356-.7789342.643467-.7789342.395112 0 .643468.2144891.643468.7789342v.846667h1.174045v-.767645c0-1.2643566-.632178-1.9868462-1.851379-1.9868462-1.219202 0-1.85138.7224896-1.85138 1.9868462v4.10916c0 1.264357.632178 1.986846 1.85138 1.986846 1.219201 0 1.851379-.722489 1.851379-1.986846v-1.049868z"/><path d="m43.804943 16.273187c-.124178-.293511-.135467-.575734-.135467-.959556v-1.219202c0-.824089-.2032-1.422401-.82409-1.682046.553156-.259644.812801-.790223.812801-1.603024v-.620889c0-1.2192013-.553156-1.817513-1.840091-1.817513h-1.873957v7.90223h1.241779v-3.217336h.428978c.564445 0 .812801.270933.812801 1.004712v1.241779c0 .643467.04516.767645.112889.970845zm-2.020713-6.77334c.440267 0 .632178.2483558.632178.812801v.778934c0 .632178-.282223.835379-.745067.835379h-.485423v-2.427114z"/></g><g transform="matrix(.70710678 -.70710678 .70710678 .70710678 -28.852611 28.481664)"><path d="m37.196584 12.94384h.85043v-5.2681506h-.737541v3.1533646l-.85043-3.1533646h-1.038579v5.2681506h.745067v-3.8156461z"/><path d="m40.784453 12.94384h1.098786l.587023-5.2681506h-.72249l-.428978 4.1844166-.413926-4.1844166h-.797748l-.398875 4.1543136-.444029-4.1543136h-.805275l.587023 5.2681506h1.136415l.301037-2.807172z"/><path d="m44.4985 10.979573v.752593c0 .376296-.165571.511763-.428978.511763-.263408 0-.428978-.135467-.428978-.511763v-2.8448019c0-.3762965.16557-.5192891.428978-.5192891.263407 0 .428978.1429926.428978.5192891v.5644448h.782697v-.5117633c0-.8429041-.421453-1.3245636-1.234253-1.3245636s-1.234253.4816595-1.234253 1.3245636v2.7394384c0 .842904.421453 1.324564 1.234253 1.324564s1.234253-.48166 1.234253-1.324564v-.699911z"/></g><g transform="matrix(.70710678 .70710678 -.70710678 .70710678 90.663743 -28.222575)"><path d="m37.196584 12.94384h.85043v-5.2681506h-.737541v3.1533646l-.85043-3.1533646h-1.038579v5.2681506h.745067v-3.8156461z"/><path d="m39.474942 8.4282824h1.429926v-.752593h-2.257779v5.2681506h2.257779v-.752593h-1.429926v-1.542815h1.136415v-.7525933h-1.136415z"/><path d="m43.028592 10.979573v.752593c0 .376296-.16557.511763-.428978.511763s-.428978-.135467-.428978-.511763v-2.8448019c0-.3762965.16557-.5192891.428978-.5192891s.428978.1429926.428978.5192891v.5644448h.782697v-.5117633c0-.8429041-.421452-1.3245636-1.234253-1.3245636-.8128 0-1.234252.4816595-1.234252 1.3245636v2.7394384c0 .842904.421452 1.324564 1.234252 1.324564.812801 0 1.234253-.48166 1.234253-1.324564v-.699911z"/></g><g transform="matrix(.70710678 -.70710678 .70710678 .70710678 76.051121 171.265859)"><path d="m35.322627 8.9400456c0 1.5051864 1.618075 1.7083864 1.618075 2.7921204 0 .376296-.16557.511763-.428978.511763-.263407 0-.428978-.135467-.428978-.511763v-.376297h-.782696v.323615c0 .842904.421452 1.324564 1.234252 1.324564s1.234253-.48166 1.234253-1.324564c0-1.505186-1.618075-1.708386-1.618075-2.7921199 0-.3762965.150518-.5192891.413926-.5192891.263407 0 .413926.1429926.413926.5192891v.218252h.782697v-.1655705c0-.8429041-.413927-1.3245636-1.219201-1.3245636-.805275 0-1.219201.4816595-1.219201 1.3245636z"/><path d="m39.063367 8.4282824h1.429927v-.752593h-2.257779v5.2681506h2.257779v-.752593h-1.429927v-1.542815h1.136416v-.7525933h-1.136416z"/><path d="m42.617018 10.979573v.752593c0 .376296-.165571.511763-.428978.511763-.263408 0-.428978-.135467-.428978-.511763v-2.8448019c0-.3762965.16557-.5192891.428978-.5192891.263407 0 .428978.1429926.428978.5192891v.5644448h.782696v-.5117633c0-.8429041-.421452-1.3245636-1.234252-1.3245636-.812801 0-1.234253.4816595-1.234253 1.3245636v2.7394384c0 .842904.421452 1.324564 1.234253 1.324564.8128 0 1.234252-.48166 1.234252-1.324564v-.699911z"/></g><g transform="matrix(.70710678 .70710678 -.70710678 .70710678 -14.304812 115.553616)"><path d="m35.322627 8.9400456c0 1.5051864 1.618075 1.7083864 1.618075 2.7921204 0 .376296-.16557.511763-.428978.511763-.263407 0-.428978-.135467-.428978-.511763v-.376297h-.782696v.323615c0 .842904.421452 1.324564 1.234252 1.324564s1.234253-.48166 1.234253-1.324564c0-1.505186-1.618075-1.708386-1.618075-2.7921199 0-.3762965.150518-.5192891.413926-.5192891.263407 0 .413926.1429926.413926.5192891v.218252h.782697v-.1655705c0-.8429041-.413927-1.3245636-1.219201-1.3245636-.805275 0-1.219201.4816595-1.219201 1.3245636z"/><path d="m40.372879 12.94384h1.098786l.587022-5.2681506h-.722489l-.428978 4.1844166-.413926-4.1844166h-.797749l-.398874 4.1543136-.44403-4.1543136h-.805274l.587022 5.2681506h1.136416l.301037-2.807172z"/><path d="m44.086925 10.979573v.752593c0 .376296-.16557.511763-.428978.511763-.263407 0-.428978-.135467-.428978-.511763v-2.8448019c0-.3762965.165571-.5192891.428978-.5192891.263408 0 .428978.1429926.428978.5192891v.5644448h.782697v-.5117633c0-.8429041-.421452-1.3245636-1.234252-1.3245636-.812801 0-1.234253.4816595-1.234253 1.3245636v2.7394384c0 .842904.421452 1.324564 1.234253 1.324564.8128 0 1.234252-.48166 1.234252-1.324564v-.699911z"/></g></g></svg>