<svg height="560" viewBox="0 0 118.53333 158.04445" width="420" xmlns="http://www.w3.org/2000/svg"><rect fill="#e4e4e4" height="158.0444" rx=".126638" width="39.511112"/><rect fill="#e4e4e4" height="158.0444" rx=".126638" width="39.511112" x="79.022224" y=".000042"/><rect fill="#bbb" height="158.0444" rx=".126638" width="39.511112" x="39.511047" y=".000042"/><g stroke-width="3.342857"><g transform="matrix(.08442545 0 0 .08442545 -2.65132 14.496318)"><path d="m248.79627 490.11573c-5.952 14.592-13.632 25.152-33.984 25.152h-27.648v-114.624c.192-6.528 5.568-11.904 12.288-11.904h2.496v-1.92h-14.784v-.192h-12.48v.192h-14.592v1.92h2.304c6.72 0 12.288 5.376 12.288 11.904v106.56c0 6.528-5.568 12.096-12.288 12.096l-2.304-.192v1.92h79.488l11.136-30.912z"/><path d="m368.79627 490.11573c-5.952 14.592-13.632 25.152-33.984 25.152h-27.648v-57.6h32.64c5.184.192 9.216 4.416 9.216 9.6v2.688h1.92v-30.336h-1.92v2.88c0 5.184-4.224 9.408-9.408 9.408h-32.448v-59.328h39.168c6.144.384 10.752 5.376 10.752 11.52v3.264l1.92.192v-15.552-3.072-5.76c-3.456 1.536-14.592 3.456-22.848 3.456h-40.704-15.36v1.92h2.496c6.336 0 11.52 4.992 12.096 11.136v107.52c0 6.528-5.568 12.096-12.288 12.096l-2.304-.192v1.92h79.488l11.136-30.912z"/></g><g transform="matrix(.08442545 0 0 .08442545 75.54776 14.496318)"><path d="m254.36427 504.70773c-7.296-8.064-24-31.872-24-31.872-3.648-5.184-9.6-11.52-13.632-13.44 18.432 0 32.64-18.048 32.64-36.672 0-22.272-14.4-36.096-37.632-36.096h-36.48-15.168v1.92h2.304c6.72 0 12.288 5.376 12.288 12.096v106.56c-.192 6.72-5.568 12.096-12.288 12.096l-2.304-.192v1.92h41.856v-1.92l-2.496.192c-6.72 0-12.096-5.568-12.288-12.096v-114.432c2.496 0 14.208-.384 24 0 14.208.768 23.232 11.904 23.808 29.376 0 4.224-.384 8.832-1.344 11.52-5.376 17.28-19.968 19.584-29.952 19.968-5.76 0-10.176 0-10.176 0v1.728c7.104 0 12.672 6.72 17.664 13.056 1.536 1.728 23.232 33.216 25.344 35.904 5.952 7.104 15.552 16.704 33.408 16.704h10.56v-1.92c-11.136 0-18.24-5.952-26.112-14.4z"/><path d="m388.29627 490.11573c-5.952 14.592-13.632 25.152-33.984 25.152h-27.648v-57.6h32.64c5.184.192 9.216 4.416 9.216 9.6v2.688h1.92v-30.336h-1.92v2.88c0 5.184-4.224 9.408-9.408 9.408h-32.448v-59.328h39.168c6.144.384 10.752 5.376 10.752 11.52v3.264l1.92.192v-15.552-3.072-5.76c-3.456 1.536-14.592 3.456-22.848 3.456h-40.704-15.36v1.92h2.496c6.336 0 11.52 4.992 12.096 11.136v107.52c0 6.528-5.568 12.096-12.288 12.096l-2.304-.192v1.92h79.488l11.136-30.912z"/></g><g transform="matrix(.08442545 0 0 .08442545 34.07363 74.29581)"><path d="m321.37227 519.29973c-6.912 0-13.056-4.608-14.016-12.096l-14.976-123.072h-1.728l-52.416 115.776-53.568-115.968h-1.728l-14.4 123.264c-.96 7.488-7.104 12.096-14.016 12.096h-3.072v1.92h37.248v-1.92h-3.072c-4.224 0-7.488-4.032-7.488-8.256 0-.192 0-.192 0-.384v-.384l8.448-92.928 49.152 106.368h1.728c1.344-7.872 6.528-19.584 6.528-19.584l40.512-89.664 8.64 95.808v.768c0 4.224-3.456 8.256-7.488 8.256h-3.072v1.728h41.856v-1.92z"/><path d="m412.52727 448.06773c10.944-3.264 21.312-13.056 21.312-29.184 0-19.392-14.784-32.256-41.856-32.256h-38.016v1.92h2.496c6.528 0 12.096 5.376 12.288 12.096v106.56c-.192 6.72-5.76 12.096-12.288 12.096-.384-.192-1.92-.192-2.496-.192v1.92h46.656c28.608 0 44.736-14.4 44.736-35.904 0-19.2-12.48-34.176-32.832-37.056zm-12.48 66.048h-18.816v-121.152h10.176c18.048-.192 27.84 9.792 28.032 27.264-.192 24.576-20.16 28.032-31.68 28.032v1.92c18.432-.192 43.2 4.608 43.2 33.408 0 19.392-11.328 30.528-30.912 30.528z"/></g></g><path d="m39.51112 0-39.51112 39.51112v-39.51112z" fill="#7a7a7a"/><g fill="#fff" stroke-width="3.342857" transform="matrix(.08442545 0 0 .08442545 -7.56724 -29.554219)"><path d="m209.75627 412.09973h-43.264c-5.504 0-13.056-1.28-15.36-2.304v16.128h1.28v-2.304c0-4.096 3.2-7.424 7.296-7.68h24.192v76.8c-.128 4.352-3.712 7.936-8.192 7.936l-1.536-.128-.128 1.28h28.032v-1.28l-1.536.128c-4.48 0-8.064-3.584-8.32-8.064v-76.672h24.32c4.096.256 7.296 3.584 7.296 7.68v2.304h1.28v-16.128c-2.432 1.024-9.856 2.304-15.36 2.304z"/><path d="m309.38827 481.21973c-3.968 9.728-9.088 16.768-22.656 16.768h-18.432v-76.416c.128-4.352 3.712-7.936 8.192-7.936h1.664v-1.28h-9.856v-.128h-8.32v.128h-9.728v1.28h1.536c4.48 0 8.192 3.584 8.192 7.936v71.04c0 4.352-3.712 8.064-8.192 8.064l-1.536-.128v1.28h52.992l7.424-20.608z"/></g><path d="m79.022217.00004192 39.511123 39.51112008v-39.51112008z" fill="#7a7a7a"/><g fill="#fff" stroke-width="3.342857" transform="matrix(.08442545 0 0 .08442545 85.5645 -29.554219)"><path d="m209.75627 412.09973h-43.264c-5.504 0-13.056-1.28-15.36-2.304v16.128h1.28v-2.304c0-4.096 3.2-7.424 7.296-7.68h24.192v76.8c-.128 4.352-3.712 7.936-8.192 7.936l-1.536-.128-.128 1.28h28.032v-1.28l-1.536.128c-4.48 0-8.064-3.584-8.32-8.064v-76.672h24.32c4.096.256 7.296 3.584 7.296 7.68v2.304h1.28v-16.128c-2.432 1.024-9.856 2.304-15.36 2.304z"/><path d="m313.10027 490.94773c-4.864-5.376-16-21.248-16-21.248-2.432-3.456-6.4-7.68-9.088-8.96 12.288 0 21.76-12.032 21.76-24.448 0-14.848-9.6-24.064-25.088-24.064h-24.32-10.112v1.28h1.536c4.48 0 8.192 3.584 8.192 8.064v71.04c-.128 4.48-3.712 8.064-8.192 8.064l-1.536-.128v1.28h27.904v-1.28l-1.664.128c-4.48 0-8.064-3.712-8.192-8.064v-76.288c1.664 0 9.472-.256 16 0 9.472.512 15.488 7.936 15.872 19.584 0 2.816-.256 5.888-.896 7.68-3.584 11.52-13.312 13.056-19.968 13.312-3.84 0-6.784 0-6.784 0v1.152c4.736 0 8.448 4.48 11.776 8.704 1.024 1.152 15.488 22.144 16.896 23.936 3.968 4.736 10.368 11.136 22.272 11.136h7.04v-1.28c-7.424 0-12.16-3.968-17.408-9.6z"/></g><path d="m118.53328 118.53333-39.511126 39.51112h39.511126z" fill="#7a7a7a"/><g fill="#fff" stroke-width="3.342857" transform="matrix(.08442545 0 0 .08442545 85.8811 110.5893)"><path d="m195.29227 453.18773c7.296-2.176 14.208-8.704 14.208-19.456 0-12.928-9.856-21.504-27.904-21.504h-25.344v1.28h1.664c4.352 0 8.064 3.584 8.192 8.064v71.04c-.128 4.48-3.84 8.064-8.192 8.064-.256-.128-1.28-.128-1.664-.128v1.28h31.104c19.072 0 29.824-9.6 29.824-23.936 0-12.8-8.32-22.784-21.888-24.704zm-8.32 44.032h-12.544v-80.768h6.784c12.032-.128 18.56 6.528 18.688 18.176-.128 16.384-13.44 18.688-21.12 18.688v1.28c12.288-.128 28.8 3.072 28.8 22.272 0 12.928-7.552 20.352-20.608 20.352z"/><path d="m307.85027 490.94773c-4.864-5.376-16-21.248-16-21.248-2.432-3.456-6.4-7.68-9.088-8.96 12.288 0 21.76-12.032 21.76-24.448 0-14.848-9.6-24.064-25.088-24.064h-24.32-10.112v1.28h1.536c4.48 0 8.192 3.584 8.192 8.064v71.04c-.128 4.48-3.712 8.064-8.192 8.064l-1.536-.128v1.28h27.904v-1.28l-1.664.128c-4.48 0-8.064-3.712-8.192-8.064v-76.288c1.664 0 9.472-.256 16 0 9.472.512 15.488 7.936 15.872 19.584 0 2.816-.256 5.888-.896 7.68-3.584 11.52-13.312 13.056-19.968 13.312-3.84 0-6.784 0-6.784 0v1.152c4.736 0 8.448 4.48 11.776 8.704 1.024 1.152 15.488 22.144 16.896 23.936 3.968 4.736 10.368 11.136 22.272 11.136h7.04v-1.28c-7.424 0-12.16-3.968-17.408-9.6z"/></g><path d="m0 118.53332 39.511126 39.51112h-39.511126z" fill="#7a7a7a"/><g fill="#fff" stroke-width="3.342857" transform="matrix(.08442545 0 0 .08442545 -7.9995 110.5893)"><path d="m195.29227 453.18773c7.296-2.176 14.208-8.704 14.208-19.456 0-12.928-9.856-21.504-27.904-21.504h-25.344v1.28h1.664c4.352 0 8.064 3.584 8.192 8.064v71.04c-.128 4.48-3.84 8.064-8.192 8.064-.256-.128-1.28-.128-1.664-.128v1.28h31.104c19.072 0 29.824-9.6 29.824-23.936 0-12.8-8.32-22.784-21.888-24.704zm-8.32 44.032h-12.544v-80.768h6.784c12.032-.128 18.56 6.528 18.688 18.176-.128 16.384-13.44 18.688-21.12 18.688v1.28c12.288-.128 28.8 3.072 28.8 22.272 0 12.928-7.552 20.352-20.608 20.352z"/><path d="m304.13827 481.21973c-3.968 9.728-9.088 16.768-22.656 16.768h-18.432v-76.416c.128-4.352 3.712-7.936 8.192-7.936h1.664v-1.28h-9.856v-.128h-8.32v.128h-9.728v1.28h1.536c4.48 0 8.192 3.584 8.192 7.936v71.04c0 4.352-3.712 8.064-8.192 8.064l-1.536-.128v1.28h52.992l7.424-20.608z"/></g></svg>