<?xml version="1.0" encoding="UTF-8" standalone="no"?>
<!-- Created with Inkscape (http://www.inkscape.org/) -->

<svg
   xmlns:dc="http://purl.org/dc/elements/1.1/"
   xmlns:cc="http://creativecommons.org/ns#"
   xmlns:rdf="http://www.w3.org/1999/02/22-rdf-syntax-ns#"
   xmlns:svg="http://www.w3.org/2000/svg"
   xmlns="http://www.w3.org/2000/svg"
   xmlns:sodipodi="http://sodipodi.sourceforge.net/DTD/sodipodi-0.dtd"
   xmlns:inkscape="http://www.inkscape.org/namespaces/inkscape"
   width="2048"
   height="2048"
   id="svg2"
   version="1.1"
   inkscape:version="0.92.1 r"
   sodipodi:docname="frontlight.svg"
   viewBox="0 0 2048 2048">
  <defs
     id="defs4" />
  <sodipodi:namedview
     id="base"
     pagecolor="#ffffff"
     bordercolor="#000000"
     borderopacity="0.70196078"
     inkscape:pageopacity="0"
     inkscape:pageshadow="2"
     inkscape:zoom="0.36854705"
     inkscape:cx="224.46072"
     inkscape:cy="755.44236"
     inkscape:document-units="px"
     inkscape:current-layer="layer1"
     showgrid="true"
     inkscape:showpageshadow="false"
     showborder="true"
     inkscape:window-width="1694"
     inkscape:window-height="962"
     inkscape:window-x="49"
     inkscape:window-y="39"
     inkscape:window-maximized="0"
     inkscape:snap-bbox="true"
     guidecolor="#9500ff"
     guideopacity="0.49803922"
     showguides="true"
     inkscape:guide-bbox="true"
     inkscape:object-nodes="true"
     inkscape:snap-smooth-nodes="true">
    <inkscape:grid
       type="xygrid"
       id="grid2985"
       empspacing="4"
       visible="true"
       enabled="true"
       snapvisiblegridlinesonly="true"
       originx="0"
       spacingx="32"
       spacingy="32"
       originy="0" />
    <sodipodi:guide
       orientation="0,1"
       position="1024,1024"
       id="guide10358"
       inkscape:locked="false" />
    <sodipodi:guide
       orientation="1,0"
       position="1024,1024"
       id="guide10360"
       inkscape:locked="false" />
    <sodipodi:guide
       orientation="1,0"
       position="1536,512"
       id="guide10362"
       inkscape:locked="false" />
    <sodipodi:guide
       orientation="1,0"
       position="512,1536"
       id="guide10364"
       inkscape:locked="false" />
    <sodipodi:guide
       orientation="0,1"
       position="512,512"
       id="guide10368"
       inkscape:locked="false" />
    <sodipodi:guide
       position="1536,1536"
       orientation="0,1"
       id="guide15161"
       inkscape:locked="false" />
  </sodipodi:namedview>
  <metadata
     id="metadata7">
    <rdf:RDF>
      <cc:Work
         rdf:about="">
        <dc:format>image/svg+xml</dc:format>
        <dc:type
           rdf:resource="http://purl.org/dc/dcmitype/StillImage" />
        <dc:title />
      </cc:Work>
    </rdf:RDF>
  </metadata>
  <g
     inkscape:label="Layer 1"
     inkscape:groupmode="layer"
     id="layer1"
     transform="translate(0,-28.362183)">
    <path
       inkscape:connector-curvature="0"
       id="path15167"
       d="m 1024,156.36232 c -26.59107,0 -47.99971,21.40736 -47.99971,47.99968 l 0,319.99968 c 0,26.59264 21.40864,48.00096 47.99971,48.00096 26.5923,0 47.9997,-21.40832 47.9997,-48.00096 l 0,-319.99968 c 0,-26.59232 -21.4074,-47.99968 -47.9997,-47.99968 z M 424.37501,404.67528 c -12.26944,0 -24.53568,4.728 -33.9376,14.12416 -18.80288,18.80416 -18.80288,49.07232 0,67.8752 l 226.25024,226.24992 c 18.80256,18.80416 49.07104,18.80416 67.87488,0 18.80288,-18.80384 18.80288,-49.07104 0,-67.87488 L 458.31261,418.79944 c -9.39968,-9.39968 -21.66944,-14.12416 -33.9376,-14.12416 z m 1199.25029,0 c -12.2695,0 -24.5357,4.728 -33.9377,14.12416 l -226.2502,226.25024 c -18.8038,18.80384 -18.8038,49.07104 0,67.87488 18.8029,18.80416 49.0714,18.80416 67.8752,0 l 226.2499,-226.24992 c 18.8042,-18.80288 18.8042,-49.07104 0,-67.8752 -9.3996,-9.39968 -21.6691,-14.12416 -33.9372,-14.12416 z M 1024,732.36232 A 320,320 0 0 0 704.00029,1052.3623 320,320 0 0 0 1024,1372.362 320,320 0 0 0 1343.9997,1052.3623 320,320 0 0 0 1024,732.36232 Z m 0,95.99936 A 223.99999,223.99999 0 0 1 1248.0006,1052.3623 223.99999,223.99999 0 0 1 1024,1276.3626 223.99999,223.99999 0 0 1 799.99965,1052.3623 223.99999,223.99999 0 0 1 1024,828.36168 Z M 175.99997,1004.3626 c -26.59136,0 -47.99968,21.4071 -47.99968,47.9997 0,26.5923 21.40832,47.9994 47.99968,47.9994 l 319.99968,0 c 26.59136,0 48.00064,-21.4071 48.00064,-47.9994 0,-26.5926 -21.40928,-47.9997 -48.00064,-47.9997 l -319.99968,0 z m 1376.00033,0 c -26.5923,0 -48.0006,21.4071 -48.0006,47.9997 0,26.5923 21.4083,47.9994 48.0006,47.9994 l 320,0 c 26.5923,0 47.9994,-21.4071 47.9994,-47.9994 0,-26.5926 -21.4071,-47.9997 -47.9994,-47.9997 l -320,0 z m -901.37537,373.3126 c -12.26816,0 -24.53664,4.728 -33.93728,14.1245 L 390.43741,1618.05 c -18.80288,18.8025 -18.80288,49.071 0,67.8748 18.80288,18.8029 49.07232,18.8029 67.8752,0 l 226.24992,-226.2502 c 18.80288,-18.8038 18.80288,-49.071 0,-67.8749 -9.39968,-9.3997 -21.66464,-14.1245 -33.9376,-14.1245 z m 746.75007,0 c -12.2717,0 -24.5366,4.728 -33.9376,14.1245 -18.8038,18.8039 -18.8038,49.0711 0,67.8749 l 226.2503,226.2502 c 18.8038,18.8029 49.0723,18.8029 67.8748,0 18.8042,-18.8038 18.8042,-49.0723 0,-67.8748 l -226.2499,-226.2503 c -9.3997,-9.3997 -21.6681,-14.1245 -33.9376,-14.1245 z M 1024,1532.3616 c -26.59107,0 -47.99971,21.4084 -47.99971,48.001 l 0,319.9997 c 0,26.5923 21.40864,47.9997 47.99971,47.9997 26.5923,0 47.9997,-21.4074 47.9997,-47.9997 l 0,-319.9997 c 0,-26.5926 -21.4074,-48.001 -47.9997,-48.001 z"
       style="color:#000000;display:inline;overflow:visible;visibility:visible;fill:#000000;fill-opacity:1;fill-rule:nonzero;stroke:none;stroke-width:1px;stroke-linecap:butt;stroke-linejoin:miter;stroke-opacity:1;marker:none;marker-start:none;marker-mid:none;marker-end:none;enable-background:accumulate" />
  </g>
</svg>
